{
.appVersion = "1060";
copyright = "Copyright 2017 Google Inc. All Rights Reserved.";
customParameters = (
{
name = glyphOrder;
value = (
.notdef,
NULL,
CR,
space,
uni00A0,
uni200C,
uni200D,
uni25CC,
u16B00,
u16B01,
u16B02,
u16B03,
u16B04,
u16B05,
u16B06,
u16B07,
u16B08,
u16B09,
u16B0A,
u16B0B,
u16B0C,
u16B0E,
u16B0F,
u16B10,
u16B11,
u16B0D,
u16B12,
u16B13,
u16B14,
u16B15,
u16B16,
u16B17,
u16B18,
u16B19,
u16B1A,
u16B1B,
u16B1C,
u16B1D,
u16B1E,
u16B1F,
u16B20,
u16B21,
u16B22,
u16B23,
u16B24,
u16B25,
u16B26,
u16B27,
u16B28,
u16B29,
u16B2A,
u16B2B,
u16B2C,
u16B2D,
u16B2E,
u16B2F,
u16B30,
u16B31,
u16B32,
u16B33,
u16B34,
u16B35,
u16B36,
u16B37,
u16B38,
u16B39,
u16B3A,
u16B3B,
u16B3C,
u16B3D,
u16B3E,
u16B3F,
u16B40,
u16B41,
u16B42,
u16B43,
u16B44,
u16B45,
u16B50,
u16B51,
u16B61,
u16B52,
u16B53,
u16B54,
u16B55,
u16B56,
u16B57,
u16B58,
u16B59,
u16B5B,
u16B5C,
u16B5D,
u16B5E,
u16B5F,
u16B60,
u16B63,
u16B64,
u16B65,
u16B66,
u16B67,
u16B68,
u16B69,
u16B6A,
u16B6B,
u16B6C,
u16B6D,
u16B6E,
u16B6F,
u16B70,
u16B71,
u16B72,
u16B73,
u16B74,
u16B75,
u16B76,
u16B77,
u16B7D,
u16B7E,
u16B7F,
u16B80,
u16B81,
u16B82,
u16B83,
u16B84,
u16B85,
u16B86,
u16B87,
u16B88,
u16B89,
u16B8A,
u16B8B,
u16B8C,
u16B8D,
u16B8E,
u16B8F
);
},
{
name = description;
value = "Designed by Monotype design team.";
},
{
name = license;
value = "This Font Software is licensed under the SIL Open Font License, Version 1.1. This Font Software is distributed on an \"AS IS\" BASIS, WITHOUT WARRANTIES OR CONDITIONS OF ANY KIND, either express or implied. See the SIL Open Font License for the specific language, permissions and limitations governing your use of this Font Software.";
},
{
name = licenseURL;
value = "http://scripts.sil.org/OFL";
},
{
name = vendorID;
value = GOOG;
},
{
name = unicodeRanges;
value = (
0,
1,
31,
45,
57
);
},
{
name = trademark;
value = "Noto is a trademark of Google Inc.";
},
{
name = "Has WWS Names";
value = 1;
},
{
name = versionString;
value = "Version 2.000";
},
{
name = fsType;

glyphs = (
{
glyphname = .notdef;
lastChange = "2017-12-01 20:58:02 +0000";
layers = (
{
layerId = UUID0;
paths = (
{
closed = 1;
nodes = (
"505 0 LINE",
"505 714 LINE",
"94 714 LINE",
"94 0 LINE"
);
},
{
closed = 1;
nodes = (
"145 663 LINE",
"454 663 LINE",
"454 51 LINE",
"145 51 LINE"
);
}
);
width = 600;
}
);
},
{
glyphname = uni25CC;
lastChange = "2017-12-01 20:58:02 +0000";
layers = (
{
layerId = UUID0;
paths = (
{
closed = 1;
nodes = (
"480 466 OFFCURVE",
"472 475 OFFCURVE",
"455 475 CURVE SMOOTH",
"437 475 OFFCURVE",
"428 466 OFFCURVE",
"428 448 CURVE SMOOTH",
"428 431 OFFCURVE",
"437 422 OFFCURVE",
"455 422 CURVE SMOOTH",
"472 422 OFFCURVE",
"480 431 OFFCURVE",
"480 448 CURVE SMOOTH"
);
},
{
closed = 1;
nodes = (
"408 514 OFFCURVE",
"400 523 OFFCURVE",
"383 523 CURVE SMOOTH",
"364 523 OFFCURVE",
"355 514 OFFCURVE",
"355 496 CURVE SMOOTH",
"355 479 OFFCURVE",
"364 470 OFFCURVE",
"383 470 CURVE SMOOTH",
"400 470 OFFCURVE",
"408 479 OFFCURVE",
"408 496 CURVE SMOOTH"
);
},
{
closed = 1;
nodes = (
"529 393 OFFCURVE",
"520 402 OFFCURVE",
"503 402 CURVE SMOOTH",
"485 402 OFFCURVE",
"476 393 OFFCURVE",
"476 376 CURVE SMOOTH",
"476 358 OFFCURVE",
"485 349 OFFCURVE",
"502 349 CURVE SMOOTH",
"520 349 OFFCURVE",
"529 358 OFFCURVE",
"529 376 CURVE SMOOTH"
);
},
{
closed = 1;
nodes = (
"546 308 OFFCURVE",
"538 317 OFFCURVE",
"521 317 CURVE SMOOTH",
"503 317 OFFCURVE",
"494 308 OFFCURVE",
"494 291 CURVE SMOOTH",
"494 274 OFFCURVE",
"503 265 OFFCURVE",
"521 265 CURVE SMOOTH",
"538 265 OFFCURVE",
"546 274 OFFCURVE",
"546 291 CURVE SMOOTH"
);
},
{
closed = 1;
nodes = (
"323 531 OFFCURVE",
"314 540 OFFCURVE",
"297 540 CURVE SMOOTH",
"280 540 OFFCURVE",
"271 531 OFFCURVE",
"271 514 CURVE SMOOTH",
"271 496 OFFCURVE",
"280 487 OFFCURVE",
"297 487 CURVE SMOOTH",
"314 487 OFFCURVE",
"323 496 OFFCURVE",
"323 514 CURVE SMOOTH"
);
},
{
closed = 1;
nodes = (
"239 514 OFFCURVE",
"230 523 OFFCURVE",
"212 523 CURVE SMOOTH",
"195 523 OFFCURVE",
"186 514 OFFCURVE",
"186 496 CURVE SMOOTH",
"186 479 OFFCURVE",
"195 470 OFFCURVE",
"212 470 CURVE SMOOTH",
"230 470 OFFCURVE",
"239 479 OFFCURVE",
"239 496 CURVE SMOOTH"
);
},
{
closed = 1;
nodes = (
"529 224 OFFCURVE",
"520 233 OFFCURVE",
"502 233 CURVE SMOOTH",
"485 233 OFFCURVE",
"476 224 OFFCURVE",
"476 206 CURVE SMOOTH",
"476 189 OFFCURVE",
"485 180 OFFCURVE",
"502 180 CURVE SMOOTH",
"520 180 OFFCURVE",
"529 189 OFFCURVE",
"529 206 CURVE SMOOTH"
);
},
{
closed = 1;
nodes = (
"167 466 OFFCURVE",
"158 475 OFFCURVE",
"140 475 CURVE SMOOTH",
"123 475 OFFCURVE",
"114 466 OFFCURVE",
"114 447 CURVE SMOOTH",
"114 430 OFFCURVE",
"123 422 OFFCURVE",
"140 422 CURVE SMOOTH",
"158 422 OFFCURVE",
"167 431 OFFCURVE",
"167 448 CURVE SMOOTH"
);
},
{
closed = 1;
nodes = (
"480 151 OFFCURVE",
"472 160 OFFCURVE",
"455 160 CURVE SMOOTH",
"437 160 OFFCURVE",
"428 151 OFFCURVE",
"428 133 CURVE SMOOTH",
"428 116 OFFCURVE",
"437 107 OFFCURVE",
"455 107 CURVE SMOOTH",
"472 107 OFFCURVE",
"480 116 OFFCURVE",
"480 133 CURVE SMOOTH"
);
},
{
closed = 1;
nodes = (
"408 103 OFFCURVE",
"400 112 OFFCURVE",
"383 112 CURVE SMOOTH",
"364 112 OFFCURVE",
"355 103 OFFCURVE",
"355 85 CURVE SMOOTH",
"355 68 OFFCURVE",
"364 60 OFFCURVE",
"383 60 CURVE SMOOTH",
"400 60 OFFCURVE",
"408 68 OFFCURVE",
"408 85 CURVE SMOOTH"
);
},
{
closed = 1;
nodes = (
"118 393 OFFCURVE",
"109 402 OFFCURVE",
"92 402 CURVE SMOOTH",
"74 402 OFFCURVE",
"65 393 OFFCURVE",
"65 376 CURVE SMOOTH",
"65 358 OFFCURVE",
"74 349 OFFCURVE",
"93 349 CURVE SMOOTH",
"110 349 OFFCURVE",
"118 358 OFFCURVE",
"118 376 CURVE SMOOTH"
);
},
{
closed = 1;
nodes = (
"101 308 OFFCURVE",
"92 317 OFFCURVE",
"75 317 CURVE SMOOTH",
"57 317 OFFCURVE",
"48 308 OFFCURVE",
"48 291 CURVE SMOOTH",
"48 274 OFFCURVE",
"57 265 OFFCURVE",
"75 265 CURVE SMOOTH",
"92 265 OFFCURVE",
"101 274 OFFCURVE",
"101 291 CURVE SMOOTH"
);
},
{
closed = 1;
nodes = (
"323 86 OFFCURVE",
"314 95 OFFCURVE",
"297 95 CURVE SMOOTH",
"280 95 OFFCURVE",
"271 86 OFFCURVE",
"271 69 CURVE SMOOTH",
"271 51 OFFCURVE",
"280 42 OFFCURVE",
"297 42 CURVE SMOOTH",
"314 42 OFFCURVE",
"323 51 OFFCURVE",
"323 69 CURVE SMOOTH"
);
},
{
closed = 1;
nodes = (
"118 224 OFFCURVE",
"109 233 OFFCURVE",
"92 233 CURVE SMOOTH",
"74 233 OFFCURVE",
"65 224 OFFCURVE",
"65 206 CURVE SMOOTH",
"65 189 OFFCURVE",
"74 180 OFFCURVE",
"92 180 CURVE SMOOTH",
"109 180 OFFCURVE",
"118 189 OFFCURVE",
"118 206 CURVE SMOOTH"
);
},
{
closed = 1;
nodes = (
"239 104 OFFCURVE",
"230 112 OFFCURVE",
"212 112 CURVE SMOOTH",
"195 112 OFFCURVE",
"186 103 OFFCURVE",
"186 85 CURVE SMOOTH",
"186 68 OFFCURVE",
"195 60 OFFCURVE",
"212 60 CURVE SMOOTH",
"230 60 OFFCURVE",
"239 69 OFFCURVE",
"239 87 CURVE SMOOTH"
);
},
{
closed = 1;
nodes = (
"167 151 OFFCURVE",
"158 160 OFFCURVE",
"140 160 CURVE SMOOTH",
"123 160 OFFCURVE",
"114 151 OFFCURVE",
"114 133 CURVE SMOOTH",
"114 116 OFFCURVE",
"123 107 OFFCURVE",
"140 107 CURVE SMOOTH",
"158 107 OFFCURVE",
"167 116 OFFCURVE",
"167 133 CURVE SMOOTH"
);
}
);
width = 594;
}
);
note = uni25CC;
unicode = 25CC;
},
{
glyphname = u16B00;
lastChange = "2017-12-01 20:58:02 +0000";
layers = (
{
layerId = UUID0;
paths = (
{
closed = 1;
nodes = (
"372 0 LINE",
"567 433 LINE SMOOTH",
"592 489 OFFCURVE",
"599 526 OFFCURVE",
"599 556 CURVE SMOOTH",
"599 595 OFFCURVE",
"579 725 OFFCURVE",
"399 725 CURVE SMOOTH",
"299 725 OFFCURVE",
"250 670 OFFCURVE",
"250 602 CURVE SMOOTH",
"250 533 OFFCURVE",
"308 480 OFFCURVE",
"376 480 CURVE SMOOTH",
"444 480 OFFCURVE",
"503 533 OFFCURVE",
"503 602 CURVE SMOOTH",
"503 605 OFFCURVE",
"502 608 OFFCURVE",
"502 611 CURVE",
"510 596 OFFCURVE",
"514 577 OFFCURVE",
"514 555 CURVE SMOOTH",
"514 526 OFFCURVE",
"505 490 OFFCURVE",
"487 450 CURVE SMOOTH",
"336 113 LINE",
"104 714 LINE",
"10 714 LINE",
"291 0 LINE"
);
},
{
closed = 1;
nodes = (
"346 550 OFFCURVE",
"324 571 OFFCURVE",
"324 602 CURVE SMOOTH",
"324 633 OFFCURVE",
"346 655 OFFCURVE",
"376 655 CURVE SMOOTH",
"406 655 OFFCURVE",
"429 633 OFFCURVE",
"429 602 CURVE SMOOTH",
"429 570 OFFCURVE",
"406 550 OFFCURVE",
"376 550 CURVE SMOOTH"
);
}
);
width = 659;
}
);
leftKerningGroup = u16B2F;
rightKerningGroup = u16B2F;
unicode = 16B00;
},
{
glyphname = u16B01;
lastChange = "2017-12-01 20:58:02 +0000";
layers = (
{
layerId = UUID0;
paths = (
{
closed = 1;
nodes = (
"393 0 LINE SMOOTH",
"521 0 OFFCURVE",
"582 69 OFFCURVE",
"582 159 CURVE SMOOTH",
"582 714 LINE",
"75 714 LINE",
"75 634 LINE",
"492 634 LINE",
"492 419 LINE",
"255 419 LINE SMOOTH",
"127 419 OFFCURVE",
"60 347 OFFCURVE",
"60 248 CURVE SMOOTH",
"60 169 LINE SMOOTH",
"60 63 OFFCURVE",
"127 0 OFFCURVE",
"265 0 CURVE SMOOTH"
);
},
{
closed = 1;
nodes = (
"193 80 OFFCURVE",
"150 110 OFFCURVE",
"150 174 CURVE SMOOTH",
"150 243 LINE SMOOTH",
"150 293 OFFCURVE",
"190 339 OFFCURVE",
"255 339 CURVE SMOOTH",
"492 339 LINE",
"492 174 LINE SMOOTH",
"492 120 OFFCURVE",
"453 80 OFFCURVE",
"384 80 CURVE SMOOTH",
"265 80 LINE SMOOTH"
);
}
);
width = 662;
}
);
unicode = 16B01;
},
{
glyphname = u16B02;
lastChange = "2017-12-01 20:58:02 +0000";
layers = (
{
layerId = UUID0;
paths = (
{
closed = 1;
nodes = (
"593 -11 OFFCURVE",
"652 42 OFFCURVE",
"652 111 CURVE SMOOTH",
"652 180 OFFCURVE",
"593 234 OFFCURVE",
"525 234 CURVE SMOOTH",
"498 234 OFFCURVE",
"473 225 OFFCURVE",
"452 210 CURVE",
"311 714 LINE",
"221 714 LINE",
"10 0 LINE",
"104 0 LINE",
"264 594 LINE",
"374 164 LINE SMOOTH",
"395 81 OFFCURVE",
"423 -11 OFFCURVE",
"525 -11 CURVE SMOOTH"
);
},
{
closed = 1;
nodes = (
"495 59 OFFCURVE",
"473 80 OFFCURVE",
"473 111 CURVE SMOOTH",
"473 142 OFFCURVE",
"495 164 OFFCURVE",
"525 164 CURVE SMOOTH",
"555 164 OFFCURVE",
"578 142 OFFCURVE",
"578 111 CURVE SMOOTH",
"578 79 OFFCURVE",
"555 59 OFFCURVE",
"525 59 CURVE SMOOTH"
);
}
);
width = 682;
}
);
leftKerningGroup = u16B2E;
rightKerningGroup = u16B2E;
unicode = 16B02;
},
{
glyphname = u16B03;
lastChange = "2017-12-01 20:58:02 +0000";
layers = (
{
layerId = UUID0;
paths = (
{
closed = 1;
nodes = (
"265 -11 OFFCURVE",
"285 79 OFFCURVE",
"285 154 CURVE SMOOTH",
"285 357 LINE",
"480 589 LINE",
"480 150 LINE SMOOTH",
"480 94 OFFCURVE",
"505 -11 OFFCURVE",
"622 -11 CURVE SMOOTH",
"690 -11 OFFCURVE",
"749 42 OFFCURVE",
"749 111 CURVE SMOOTH",
"749 180 OFFCURVE",
"690 234 OFFCURVE",
"622 234 CURVE SMOOTH",
"603 234 OFFCURVE",
"586 230 OFFCURVE",
"570 223 CURVE",
"570 714 LINE",
"480 714 LINE",
"480 685 LINE",
"285 456 LINE",
"285 714 LINE",
"195 714 LINE",
"195 350 LINE",
"94 231 LINE SMOOTH",
"62 194 OFFCURVE",
"30 152 OFFCURVE",
"30 100 CURVE SMOOTH",
"30 25 OFFCURVE",
"80 -11 OFFCURVE",
"142 -11 CURVE SMOOTH"
);
},
{
closed = 1;
nodes = (
"115 57 OFFCURVE",
"102 79 OFFCURVE",
"102 100 CURVE SMOOTH",
"102 128 OFFCURVE",
"110 149 OFFCURVE",
"133 176 CURVE SMOOTH",
"195 250 LINE",
"195 124 LINE SMOOTH",
"195 85 OFFCURVE",
"176 57 OFFCURVE",
"142 57 CURVE SMOOTH"
);
},
{
closed = 1;
nodes = (
"592 59 OFFCURVE",
"570 80 OFFCURVE",
"570 111 CURVE SMOOTH",
"570 142 OFFCURVE",
"592 164 OFFCURVE",
"622 164 CURVE SMOOTH",
"652 164 OFFCURVE",
"675 142 OFFCURVE",
"675 111 CURVE SMOOTH",
"675 79 OFFCURVE",
"652 59 OFFCURVE",
"622 59 CURVE SMOOTH"
);
}
);
width = 779;
}
);
leftKerningGroup = u16B29;
rightKerningGroup = u16B29;
unicode = 16B03;
},
{
glyphname = u16B04;
lastChange = "2017-12-01 20:58:02 +0000";
layers = (
{
layerId = UUID0;
paths = (
{
closed = 1;
nodes = (
"585 -11 OFFCURVE",
"610 94 OFFCURVE",
"610 150 CURVE SMOOTH",
"610 491 LINE SMOOTH",
"610 639 OFFCURVE",
"531 725 OFFCURVE",
"342 725 CURVE SMOOTH",
"164 725 OFFCURVE",
"80 648 OFFCURVE",
"80 489 CURVE SMOOTH",
"80 0 LINE",
"170 0 LINE",
"170 484 LINE SMOOTH",
"170 600 OFFCURVE",
"222 643 OFFCURVE",
"347 643 CURVE SMOOTH",
"476 643 OFFCURVE",
"520 591 OFFCURVE",
"520 483 CURVE SMOOTH",
"520 223 LINE",
"504 230 OFFCURVE",
"487 234 OFFCURVE",
"468 234 CURVE SMOOTH",
"400 234 OFFCURVE",
"341 180 OFFCURVE",
"341 111 CURVE SMOOTH",
"341 42 OFFCURVE",
"400 -11 OFFCURVE",
"468 -11 CURVE SMOOTH"
);
},
{
closed = 1;
nodes = (
"438 59 OFFCURVE",
"415 79 OFFCURVE",
"415 111 CURVE SMOOTH",
"415 142 OFFCURVE",
"438 164 OFFCURVE",
"468 164 CURVE SMOOTH",
"498 164 OFFCURVE",
"520 142 OFFCURVE",
"520 111 CURVE SMOOTH",
"520 80 OFFCURVE",
"498 59 OFFCURVE",
"468 59 CURVE SMOOTH"
);
}
);
width = 690;
}
);
unicode = 16B04;
},
{
glyphname = u16B05;
lastChange = "2017-12-01 20:58:02 +0000";
layers = (
{
layerId = UUID0;
paths = (
{
closed = 1;
nodes = (
"290 -11 OFFCURVE",
"349 42 OFFCURVE",
"349 111 CURVE SMOOTH",
"349 180 OFFCURVE",
"290 234 OFFCURVE",
"222 234 CURVE SMOOTH",
"203 234 OFFCURVE",
"186 230 OFFCURVE",
"170 223 CURVE",
"170 491 LINE SMOOTH",
"170 599 OFFCURVE",
"224 643 OFFCURVE",
"353 643 CURVE SMOOTH",
"429 643 OFFCURVE",
"482 630 OFFCURVE",
"512 593 CURVE",
"377 452 OFFCURVE",
"369 316 OFFCURVE",
"369 200 CURVE SMOOTH",
"369 46 OFFCURVE",
"425 -11 OFFCURVE",
"498 -11 CURVE SMOOTH",
"602 -11 OFFCURVE",
"630 79 OFFCURVE",
"630 154 CURVE SMOOTH",
"630 492 LINE SMOOTH",
"630 531 OFFCURVE",
"624 566 OFFCURVE",
"612 595 CURVE",
"634 613 OFFCURVE",
"658 629 OFFCURVE",
"685 647 CURVE",
"652 708 LINE",
"624 689 OFFCURVE",
"599 671 OFFCURVE",
"577 652 CURVE",
"532 701 OFFCURVE",
"458 725 OFFCURVE",
"358 725 CURVE SMOOTH",
"169 725 OFFCURVE",
"80 645 OFFCURVE",
"80 497 CURVE SMOOTH",
"80 150 LINE SMOOTH",
"80 94 OFFCURVE",
"105 -11 OFFCURVE",
"222 -11 CURVE SMOOTH"
);
},
{
closed = 1;
nodes = (
"192 59 OFFCURVE",
"170 80 OFFCURVE",
"170 111 CURVE SMOOTH",
"170 142 OFFCURVE",
"192 164 OFFCURVE",
"222 164 CURVE SMOOTH",
"252 164 OFFCURVE",
"275 142 OFFCURVE",
"275 111 CURVE SMOOTH",
"275 79 OFFCURVE",
"252 59 OFFCURVE",
"222 59 CURVE SMOOTH"
);
},
{
closed = 1;
nodes = (
"460 59 OFFCURVE",
"443 123 OFFCURVE",
"443 200 CURVE SMOOTH",
"443 360 OFFCURVE",
"476 453 OFFCURVE",
"538 526 CURVE",
"539 515 OFFCURVE",
"540 504 OFFCURVE",
"540 492 CURVE SMOOTH",
"540 124 LINE SMOOTH",
"540 85 OFFCURVE",
"521 59 OFFCURVE",
"496 59 CURVE SMOOTH"
);
}
);
width = 710;
}
);
unicode = 16B05;
},
{
glyphname = u16B06;
lastChange = "2017-12-01 20:58:02 +0000";
layers = (
{
layerId = UUID0;
paths = (
{
closed = 1;
nodes = (
"421 -11 OFFCURVE",
"450 83 OFFCURVE",
"450 231 CURVE SMOOTH",
"450 634 LINE",
"584 634 LINE",
"584 0 LINE",
"674 0 LINE",
"674 714 LINE",
"360 714 LINE",
"360 231 LINE SMOOTH",
"360 143 OFFCURVE",
"360 71 OFFCURVE",
"267 71 CURVE SMOOTH",
"172 71 OFFCURVE",
"170 134 OFFCURVE",
"170 232 CURVE SMOOTH",
"170 714 LINE",
"80 714 LINE",
"80 233 LINE SMOOTH",
"80 74 OFFCURVE",
"109 -11 OFFCURVE",
"262 -11 CURVE SMOOTH"
);
}
);
width = 764;
}
);
rightMetricsKey = u16B2B;
unicode = 16B06;
},
{
glyphname = u16B07;
lastChange = "2017-12-01 20:58:02 +0000";
layers = (
{
layerId = UUID0;
paths = (
{
closed = 1;
nodes = (
"170 0 LINE",
"170 514 LINE SMOOTH",
"170 602 OFFCURVE",
"182 643 OFFCURVE",
"252 643 CURVE SMOOTH",
"353 643 OFFCURVE",
"466 545 OFFCURVE",
"479 469 CURVE",
"479 0 LINE",
"569 0 LINE",
"569 714 LINE",
"479 714 LINE",
"479 608 LINE",
"430 664 OFFCURVE",
"348 725 OFFCURVE",
"241 725 CURVE SMOOTH",
"114 725 OFFCURVE",
"80 644 OFFCURVE",
"80 511 CURVE SMOOTH",
"80 0 LINE"
);
}
);
width = 659;
}
);
rightMetricsKey = u16B2B;
unicode = 16B07;
},
{
glyphname = u16B08;
lastChange = "2017-12-01 20:58:02 +0000";
layers = (
{
layerId = UUID0;
paths = (
{
closed = 1;
nodes = (
"526 -11 OFFCURVE",
"610 66 OFFCURVE",
"610 225 CURVE SMOOTH",
"610 714 LINE",
"520 714 LINE",
"520 230 LINE SMOOTH",
"520 114 OFFCURVE",
"468 71 OFFCURVE",
"343 71 CURVE SMOOTH",
"214 71 OFFCURVE",
"170 123 OFFCURVE",
"170 231 CURVE SMOOTH",
"170 491 LINE",
"186 484 OFFCURVE",
"203 480 OFFCURVE",
"222 480 CURVE SMOOTH",
"290 480 OFFCURVE",
"349 534 OFFCURVE",
"349 603 CURVE SMOOTH",
"349 672 OFFCURVE",
"290 725 OFFCURVE",
"222 725 CURVE SMOOTH",
"105 725 OFFCURVE",
"80 620 OFFCURVE",
"80 564 CURVE SMOOTH",
"80 223 LINE SMOOTH",
"80 75 OFFCURVE",
"159 -11 OFFCURVE",
"348 -11 CURVE SMOOTH"
);
},
{
closed = 1;
nodes = (
"192 550 OFFCURVE",
"170 572 OFFCURVE",
"170 603 CURVE SMOOTH",
"170 634 OFFCURVE",
"192 655 OFFCURVE",
"222 655 CURVE SMOOTH",
"252 655 OFFCURVE",
"275 635 OFFCURVE",
"275 603 CURVE SMOOTH",
"275 572 OFFCURVE",
"252 550 OFFCURVE",
"222 550 CURVE SMOOTH"
);
}
);
width = 710;
}
);
unicode = 16B08;
},
{
glyphname = u16B09;
lastChange = "2017-12-01 20:58:02 +0000";
layers = (
{
layerId = UUID0;
paths = (
{
closed = 1;
nodes = (
"588 -11 OFFCURVE",
"613 94 OFFCURVE",
"613 150 CURVE SMOOTH",
"613 714 LINE",
"523 714 LINE",
"523 422 LINE",
"180 422 LINE",
"180 714 LINE",
"90 714 LINE",
"90 0 LINE",
"180 0 LINE",
"180 342 LINE",
"523 342 LINE",
"523 223 LINE",
"507 230 OFFCURVE",
"490 234 OFFCURVE",
"471 234 CURVE SMOOTH",
"403 234 OFFCURVE",
"344 180 OFFCURVE",
"344 111 CURVE SMOOTH",
"344 42 OFFCURVE",
"403 -11 OFFCURVE",
"471 -11 CURVE SMOOTH"
);
},
{
closed = 1;
nodes = (
"441 59 OFFCURVE",
"418 79 OFFCURVE",
"418 111 CURVE SMOOTH",
"418 142 OFFCURVE",
"441 164 OFFCURVE",
"471 164 CURVE SMOOTH",
"501 164 OFFCURVE",
"523 142 OFFCURVE",
"523 111 CURVE SMOOTH",
"523 80 OFFCURVE",
"501 59 OFFCURVE",
"471 59 CURVE SMOOTH"
);
}
);
width = 693;
}
);
leftMetricsKey = u16B2B;
unicode = 16B09;
},
{
glyphname = u16B0A;
lastChange = "2017-12-01 20:58:02 +0000";
layers = (
{
layerId = UUID0;
paths = (
{
closed = 1;
nodes = (
"200 0 LINE",
"195 78 LINE",
"200 168 OFFCURVE",
"252 229 OFFCURVE",
"342 229 CURVE SMOOTH",
"430 229 OFFCURVE",
"479 160 OFFCURVE",
"484 78 CURVE",
"480 0 LINE",
"570 0 LINE",
"610 714 LINE",
"520 714 LINE",
"493 242 LINE",
"460 285 OFFCURVE",
"409 311 OFFCURVE",
"337 311 CURVE SMOOTH",
"268 311 OFFCURVE",
"218 288 OFFCURVE",
"186 246 CURVE",
"160 714 LINE",
"70 714 LINE",
"110 0 LINE"
);
}
);
width = 680;
}
);
unicode = 16B0A;
},
{
glyphname = u16B0B;
lastChange = "2017-12-01 20:58:02 +0000";
layers = (
{
layerId = UUID0;
paths = (
{
closed = 1;
nodes = (
"436 -10 OFFCURVE",
"460 84 OFFCURVE",
"460 232 CURVE SMOOTH",
"460 547 LINE",
"503 585 OFFCURVE",
"544 643 OFFCURVE",
"584 643 CURVE SMOOTH",
"628 643 OFFCURVE",
"640 580 OFFCURVE",
"640 533 CURVE SMOOTH",
"640 0 LINE",
"730 0 LINE",
"730 533 LINE SMOOTH",
"730 620 OFFCURVE",
"703 725 OFFCURVE",
"588 725 CURVE SMOOTH",
"528 725 OFFCURVE",
"486 675 OFFCURVE",
"450 633 CURVE",
"432 693 OFFCURVE",
"390 725 OFFCURVE",
"329 725 CURVE SMOOTH",
"269 725 OFFCURVE",
"212 682 OFFCURVE",
"212 613 CURVE SMOOTH",
"212 544 OFFCURVE",
"267 499 OFFCURVE",
"332 499 CURVE SMOOTH",
"347 499 OFFCURVE",
"359 500 OFFCURVE",
"370 502 CURVE",
"370 232 LINE SMOOTH",
"370 144 OFFCURVE",
"365 72 OFFCURVE",
"272 72 CURVE SMOOTH",
"177 72 OFFCURVE",
"170 135 OFFCURVE",
"170 233 CURVE SMOOTH",
"170 714 LINE",
"80 714 LINE",
"80 234 LINE SMOOTH",
"80 75 OFFCURVE",
"109 -10 OFFCURVE",
"267 -10 CURVE SMOOTH"
);
},
{
closed = 1;
nodes = (
"303 565 OFFCURVE",
"282 586 OFFCURVE",
"282 611 CURVE SMOOTH",
"282 636 OFFCURVE",
"303 658 OFFCURVE",
"328 658 CURVE SMOOTH",
"353 658 OFFCURVE",
"375 636 OFFCURVE",
"375 611 CURVE SMOOTH",
"375 586 OFFCURVE",
"353 565 OFFCURVE",
"328 565 CURVE SMOOTH"
);
}
);
width = 810;
}
);
unicode = 16B0B;
},
{
glyphname = u16B0C;
lastChange = "2017-12-01 20:58:02 +0000";
layers = (
{
layerId = UUID0;
paths = (
{
closed = 1;
nodes = (
"491 0 LINE SMOOTH",
"587 0 OFFCURVE",
"623 66 OFFCURVE",
"623 148 CURVE SMOOTH",
"623 714 LINE",
"533 714 LINE",
"533 171 LINE SMOOTH",
"533 99 OFFCURVE",
"513 80 OFFCURVE",
"458 80 CURVE SMOOTH",
"245 80 LINE SMOOTH",
"190 80 OFFCURVE",
"170 99 OFFCURVE",
"170 171 CURVE SMOOTH",
"170 342 LINE",
"350 342 LINE",
"350 422 LINE",
"170 422 LINE",
"170 714 LINE",
"80 714 LINE",
"80 148 LINE SMOOTH",
"80 66 OFFCURVE",
"116 0 OFFCURVE",
"212 0 CURVE SMOOTH"
);
}
);
width = 703;
}
);
unicode = 16B0C;
},
{
glyphname = u16B0E;
lastChange = "2017-12-01 20:58:02 +0000";
layers = (
{
layerId = UUID0;
paths = (
{
closed = 1;
nodes = (
"620 -11 OFFCURVE",
"679 42 OFFCURVE",
"679 111 CURVE SMOOTH",
"679 180 OFFCURVE",
"620 234 OFFCURVE",
"552 234 CURVE SMOOTH",
"533 234 OFFCURVE",
"516 230 OFFCURVE",
"500 223 CURVE",
"500 634 LINE",
"585 634 LINE",
"585 714 LINE",
"90 714 LINE",
"90 0 LINE",
"180 0 LINE",
"180 634 LINE",
"410 634 LINE",
"410 150 LINE SMOOTH",
"410 94 OFFCURVE",
"435 -11 OFFCURVE",
"552 -11 CURVE SMOOTH"
);
},
{
closed = 1;
nodes = (
"522 59 OFFCURVE",
"500 80 OFFCURVE",
"500 111 CURVE SMOOTH",
"500 142 OFFCURVE",
"522 164 OFFCURVE",
"552 164 CURVE SMOOTH",
"582 164 OFFCURVE",
"605 142 OFFCURVE",
"605 111 CURVE SMOOTH",
"605 79 OFFCURVE",
"582 59 OFFCURVE",
"552 59 CURVE SMOOTH"
);
}
);
width = 709;
}
);
leftMetricsKey = u16B2B;
unicode = 16B0E;
},
{
glyphname = u16B0F;
lastChange = "2017-12-01 20:58:02 +0000";
layers = (
{
layerId = UUID0;
paths = (
{
closed = 1;
nodes = (
"296 -10 OFFCURVE",
"343 22 OFFCURVE",
"375 70 CURVE",
"407 22 OFFCURVE",
"454 -10 OFFCURVE",
"510 -10 CURVE SMOOTH",
"632 -10 OFFCURVE",
"670 84 OFFCURVE",
"670 232 CURVE SMOOTH",
"670 564 LINE SMOOTH",
"670 620 OFFCURVE",
"645 725 OFFCURVE",
"528 725 CURVE SMOOTH",
"460 725 OFFCURVE",
"401 672 OFFCURVE",
"401 603 CURVE SMOOTH",
"401 534 OFFCURVE",
"460 480 OFFCURVE",
"528 480 CURVE SMOOTH",
"547 480 OFFCURVE",
"564 484 OFFCURVE",
"580 491 CURVE",
"580 232 LINE SMOOTH",
"580 124 OFFCURVE",
"561 72 OFFCURVE",
"507 72 CURVE SMOOTH",
"450 72 OFFCURVE",
"420 124 OFFCURVE",
"420 230 CURVE SMOOTH",
"420 374 LINE",
"330 374 LINE",
"330 232 LINE SMOOTH",
"330 125 OFFCURVE",
"301 72 OFFCURVE",
"243 72 CURVE SMOOTH",
"189 72 OFFCURVE",
"170 124 OFFCURVE",
"170 232 CURVE SMOOTH",
"170 714 LINE",
"80 714 LINE",
"80 232 LINE SMOOTH",
"80 84 OFFCURVE",
"118 -10 OFFCURVE",
"240 -10 CURVE SMOOTH"
);
},
{
closed = 1;
nodes = (
"498 550 OFFCURVE",
"475 572 OFFCURVE",
"475 603 CURVE SMOOTH",
"475 635 OFFCURVE",
"498 655 OFFCURVE",
"528 655 CURVE SMOOTH",
"558 655 OFFCURVE",
"580 634 OFFCURVE",
"580 603 CURVE SMOOTH",
"580 572 OFFCURVE",
"558 550 OFFCURVE",
"528 550 CURVE SMOOTH"
);
}
);
width = 750;
}
);
unicode = 16B0F;
},
{
glyphname = u16B10;
lastChange = "2017-12-01 20:58:02 +0000";
layers = (
{
layerId = UUID0;
paths = (
{
closed = 1;
nodes = (
"656 -11 OFFCURVE",
"685 83 OFFCURVE",
"685 231 CURVE SMOOTH",
"685 714 LINE",
"595 714 LINE",
"595 231 LINE SMOOTH",
"595 143 OFFCURVE",
"595 71 OFFCURVE",
"502 71 CURVE SMOOTH",
"407 71 OFFCURVE",
"405 134 OFFCURVE",
"405 232 CURVE SMOOTH",
"405 714 LINE",
"90 714 LINE",
"90 0 LINE",
"180 0 LINE",
"180 634 LINE",
"315 634 LINE",
"315 233 LINE SMOOTH",
"315 74 OFFCURVE",
"343 -11 OFFCURVE",
"497 -11 CURVE SMOOTH"
);
}
);
width = 765;
}
);
leftMetricsKey = u16B2B;
unicode = 16B10;
},
{
glyphname = u16B11;
lastChange = "2017-12-01 20:58:02 +0000";
layers = (
{
layerId = UUID0;
paths = (
{
closed = 1;
nodes = (
"296 -11 OFFCURVE",
"343 21 OFFCURVE",
"375 69 CURVE",
"407 21 OFFCURVE",
"454 -11 OFFCURVE",
"510 -11 CURVE SMOOTH",
"632 -11 OFFCURVE",
"670 83 OFFCURVE",
"670 231 CURVE SMOOTH",
"670 714 LINE",
"580 714 LINE",
"580 231 LINE SMOOTH",
"580 123 OFFCURVE",
"561 71 OFFCURVE",
"507 71 CURVE SMOOTH",
"450 71 OFFCURVE",
"420 123 OFFCURVE",
"420 229 CURVE SMOOTH",
"420 714 LINE",
"330 714 LINE",
"330 231 LINE SMOOTH",
"330 124 OFFCURVE",
"301 71 OFFCURVE",
"243 71 CURVE SMOOTH",
"189 71 OFFCURVE",
"170 123 OFFCURVE",
"170 231 CURVE SMOOTH",
"170 714 LINE",
"80 714 LINE",
"80 231 LINE SMOOTH",
"80 83 OFFCURVE",
"118 -11 OFFCURVE",
"240 -11 CURVE SMOOTH"
);
}
);
width = 750;
}
);
unicode = 16B11;
},
{
glyphname = u16B0D;
lastChange = "2017-12-01 20:58:02 +0000";
layers = (
{
layerId = UUID0;
paths = (
{
closed = 1;
nodes = (
"296 -10 OFFCURVE",
"343 22 OFFCURVE",
"375 70 CURVE",
"407 22 OFFCURVE",
"454 -10 OFFCURVE",
"510 -10 CURVE SMOOTH",
"632 -10 OFFCURVE",
"670 84 OFFCURVE",
"670 232 CURVE SMOOTH",
"670 714 LINE",
"580 714 LINE",
"580 232 LINE SMOOTH",
"580 124 OFFCURVE",
"561 72 OFFCURVE",
"507 72 CURVE SMOOTH",
"449 72 OFFCURVE",
"420 125 OFFCURVE",
"420 232 CURVE SMOOTH",
"420 374 LINE",
"330 374 LINE",
"330 230 LINE SMOOTH",
"330 124 OFFCURVE",
"300 72 OFFCURVE",
"243 72 CURVE SMOOTH",
"189 72 OFFCURVE",
"170 124 OFFCURVE",
"170 232 CURVE SMOOTH",
"170 491 LINE",
"186 484 OFFCURVE",
"203 480 OFFCURVE",
"222 480 CURVE SMOOTH",
"290 480 OFFCURVE",
"349 534 OFFCURVE",
"349 603 CURVE SMOOTH",
"349 672 OFFCURVE",
"290 725 OFFCURVE",
"222 725 CURVE SMOOTH",
"105 725 OFFCURVE",
"80 620 OFFCURVE",
"80 564 CURVE SMOOTH",
"80 232 LINE SMOOTH",
"80 84 OFFCURVE",
"118 -10 OFFCURVE",
"240 -10 CURVE SMOOTH"
);
},
{
closed = 1;
nodes = (
"192 550 OFFCURVE",
"170 572 OFFCURVE",
"170 603 CURVE SMOOTH",
"170 634 OFFCURVE",
"192 655 OFFCURVE",
"222 655 CURVE SMOOTH",
"252 655 OFFCURVE",
"275 635 OFFCURVE",
"275 603 CURVE SMOOTH",
"275 572 OFFCURVE",
"252 550 OFFCURVE",
"222 550 CURVE SMOOTH"
);
}
);
width = 750;
}
);
unicode = 16B0D;
},
{
glyphname = u16B12;
lastChange = "2017-12-01 20:58:02 +0000";
layers = (
{
layerId = UUID0;
paths = (
{
closed = 1;
nodes = (
"366 -11 OFFCURVE",
"380 90 OFFCURVE",
"380 238 CURVE SMOOTH",
"380 634 LINE",
"497 634 LINE SMOOTH",
"554 634 OFFCURVE",
"577 594 OFFCURVE",
"577 540 CURVE SMOOTH",
"577 0 LINE",
"667 0 LINE",
"667 555 LINE SMOOTH",
"667 645 OFFCURVE",
"614 714 OFFCURVE",
"510 714 CURVE SMOOTH",
"250 714 LINE SMOOTH",
"106 714 OFFCURVE",
"80 601 OFFCURVE",
"80 450 CURVE SMOOTH",
"80 240 LINE SMOOTH",
"80 81 OFFCURVE",
"99 -11 OFFCURVE",
"227 -11 CURVE SMOOTH"
);
},
{
closed = 1;
nodes = (
"177 71 OFFCURVE",
"170 121 OFFCURVE",
"170 237 CURVE SMOOTH",
"170 453 LINE SMOOTH",
"170 569 OFFCURVE",
"177 634 OFFCURVE",
"262 634 CURVE SMOOTH",
"290 634 LINE",
"290 238 LINE SMOOTH",
"290 130 OFFCURVE",
"281 71 OFFCURVE",
"232 71 CURVE SMOOTH"
);
}
);
width = 747;
}
);
unicode = 16B12;
},
{
glyphname = u16B13;
lastChange = "2017-12-01 20:58:02 +0000";
layers = (
{
layerId = UUID0;
paths = (
{
closed = 1;
nodes = (
"436 -11 OFFCURVE",
"460 83 OFFCURVE",
"460 231 CURVE SMOOTH",
"460 480 LINE",
"518 485 OFFCURVE",
"581 494 OFFCURVE",
"640 512 CURVE",
"640 0 LINE",
"730 0 LINE",
"730 714 LINE",
"640 714 LINE",
"640 591 LINE",
"584 574 OFFCURVE",
"518 561 OFFCURVE",
"460 554 CURVE",
"460 566 LINE SMOOTH",
"460 673 OFFCURVE",
"412 725 OFFCURVE",
"329 725 CURVE SMOOTH",
"261 725 OFFCURVE",
"212 682 OFFCURVE",
"212 613 CURVE SMOOTH",
"212 517 OFFCURVE",
"278 479 OFFCURVE",
"370 477 CURVE",
"370 231 LINE SMOOTH",
"370 143 OFFCURVE",
"365 71 OFFCURVE",
"272 71 CURVE SMOOTH",
"177 71 OFFCURVE",
"170 134 OFFCURVE",
"170 232 CURVE SMOOTH",
"170 714 LINE",
"80 714 LINE",
"80 233 LINE SMOOTH",
"80 74 OFFCURVE",
"109 -11 OFFCURVE",
"267 -11 CURVE SMOOTH"
);
},
{
closed = 1;
nodes = (
"320 549 OFFCURVE",
"286 568 OFFCURVE",
"286 613 CURVE SMOOTH",
"286 645 OFFCURVE",
"309 655 OFFCURVE",
"328 655 CURVE SMOOTH",
"347 655 OFFCURVE",
"370 643 OFFCURVE",
"370 589 CURVE SMOOTH",
"370 548 LINE"
);
}
);
width = 820;
}
);
rightMetricsKey = u16B2B;
unicode = 16B13;
},
{
glyphname = u16B14;
lastChange = "2017-12-01 20:58:02 +0000";
layers = (
{
layerId = UUID0;
paths = (
{
closed = 1;
nodes = (
"188 29 OFFCURVE",
"218 57 OFFCURVE",
"249 57 CURVE SMOOTH",
"327 57 OFFCURVE",
"374 -12 OFFCURVE",
"476 -12 CURVE SMOOTH",
"603 -12 OFFCURVE",
"647 69 OFFCURVE",
"647 202 CURVE SMOOTH",
"647 714 LINE",
"557 714 LINE",
"557 199 LINE SMOOTH",
"557 102 OFFCURVE",
"525 71 OFFCURVE",
"479 71 CURVE SMOOTH",
"414 71 OFFCURVE",
"318 140 OFFCURVE",
"252 140 CURVE SMOOTH",
"225 140 OFFCURVE",
"201 132 OFFCURVE",
"180 120 CURVE",
"180 714 LINE",
"90 714 LINE",
"90 13 LINE",
"161 -16 LINE"
);
}
);
width = 727;
}
);
leftMetricsKey = u16B2B;
unicode = 16B14;
},
{
glyphname = u16B15;
lastChange = "2017-12-01 20:58:02 +0000";
layers = (
{
layerId = UUID0;
paths = (
{
closed = 1;
nodes = (
"232 -11 OFFCURVE",
"290 43 OFFCURVE",
"290 112 CURVE SMOOTH",
"290 181 OFFCURVE",
"232 234 OFFCURVE",
"164 234 CURVE SMOOTH",
"158 234 OFFCURVE",
"152 233 OFFCURVE",
"146 232 CURVE",
"304 601 LINE",
"506 0 LINE",
"600 0 LINE",
"349 714 LINE",
"268 714 LINE",
"49 207 LINE SMOOTH",
"36 177 OFFCURVE",
"30 149 OFFCURVE",
"30 123 CURVE SMOOTH",
"30 45 OFFCURVE",
"83 -11 OFFCURVE",
"164 -11 CURVE SMOOTH"
);
},
{
closed = 1;
nodes = (
"134 59 OFFCURVE",
"111 81 OFFCURVE",
"111 112 CURVE SMOOTH",
"111 144 OFFCURVE",
"134 164 OFFCURVE",
"164 164 CURVE SMOOTH",
"194 164 OFFCURVE",
"216 143 OFFCURVE",
"216 112 CURVE SMOOTH",
"216 81 OFFCURVE",
"194 59 OFFCURVE",
"164 59 CURVE SMOOTH"
);
}
);
width = 630;
}
);
leftKerningGroup = u16B2E;
rightKerningGroup = u16B2E;
unicode = 16B15;
},
{
glyphname = u16B16;
lastChange = "2017-12-01 20:58:02 +0000";
layers = (
{
layerId = UUID0;
paths = (
{
closed = 1;
nodes = (
"394 0 LINE SMOOTH",
"522 0 OFFCURVE",
"583 69 OFFCURVE",
"583 159 CURVE SMOOTH",
"583 555 LINE SMOOTH",
"583 645 OFFCURVE",
"530 714 OFFCURVE",
"426 714 CURVE SMOOTH",
"217 714 LINE SMOOTH",
"113 714 OFFCURVE",
"60 645 OFFCURVE",
"60 555 CURVE SMOOTH",
"60 480 LINE",
"150 480 LINE",
"150 540 LINE SMOOTH",
"150 594 OFFCURVE",
"173 634 OFFCURVE",
"230 634 CURVE SMOOTH",
"413 634 LINE SMOOTH",
"470 634 OFFCURVE",
"493 594 OFFCURVE",
"493 540 CURVE SMOOTH",
"493 387 LINE",
"470 404 OFFCURVE",
"436 419 OFFCURVE",
"388 419 CURVE SMOOTH",
"236 419 LINE SMOOTH",
"121 419 OFFCURVE",
"61 342 OFFCURVE",
"61 258 CURVE SMOOTH",
"61 159 LINE SMOOTH",
"61 59 OFFCURVE",
"121 0 OFFCURVE",
"246 0 CURVE SMOOTH"
);
},
{
closed = 1;
nodes = (
"194 80 OFFCURVE",
"151 110 OFFCURVE",
"151 174 CURVE SMOOTH",
"151 243 LINE SMOOTH",
"151 293 OFFCURVE",
"181 339 OFFCURVE",
"256 339 CURVE SMOOTH",
"388 339 LINE SMOOTH",
"461 339 OFFCURVE",
"493 295 OFFCURVE",
"493 246 CURVE SMOOTH",
"493 174 LINE SMOOTH",
"493 120 OFFCURVE",
"454 80 OFFCURVE",
"385 80 CURVE SMOOTH",
"266 80 LINE SMOOTH"
);
}
);
width = 663;
}
);
unicode = 16B16;
},
{
glyphname = u16B17;
lastChange = "2017-12-01 20:58:02 +0000";
layers = (
{
layerId = UUID0;
paths = (
{
closed = 1;
nodes = (
"421 -11 OFFCURVE",
"450 83 OFFCURVE",
"450 231 CURVE SMOOTH",
"450 491 LINE",
"466 484 OFFCURVE",
"483 480 OFFCURVE",
"502 480 CURVE SMOOTH",
"570 480 OFFCURVE",
"629 534 OFFCURVE",
"629 603 CURVE SMOOTH",
"629 672 OFFCURVE",
"570 725 OFFCURVE",
"502 725 CURVE SMOOTH",
"385 725 OFFCURVE",
"360 620 OFFCURVE",
"360 564 CURVE SMOOTH",
"360 231 LINE SMOOTH",
"360 143 OFFCURVE",
"360 71 OFFCURVE",
"267 71 CURVE SMOOTH",
"172 71 OFFCURVE",
"170 134 OFFCURVE",
"170 232 CURVE SMOOTH",
"170 714 LINE",
"80 714 LINE",
"80 233 LINE SMOOTH",
"80 74 OFFCURVE",
"108 -11 OFFCURVE",
"262 -11 CURVE SMOOTH"
);
},
{
closed = 1;
nodes = (
"472 550 OFFCURVE",
"450 572 OFFCURVE",
"450 603 CURVE SMOOTH",
"450 634 OFFCURVE",
"472 655 OFFCURVE",
"502 655 CURVE SMOOTH",
"532 655 OFFCURVE",
"555 635 OFFCURVE",
"555 603 CURVE SMOOTH",
"555 572 OFFCURVE",
"532 550 OFFCURVE",
"502 550 CURVE SMOOTH"
);
}
);
width = 659;
}
);
rightKerningGroup = u16B1F;
unicode = 16B17;
},
{
glyphname = u16B18;
lastChange = "2017-12-01 20:58:02 +0000";
layers = (
{
layerId = UUID0;
paths = (
{
closed = 1;
nodes = (
"467 -11 OFFCURVE",
"512 78 OFFCURVE",
"512 161 CURVE SMOOTH",
"512 170 LINE",
"422 170 LINE",
"422 162 LINE SMOOTH",
"422 131 OFFCURVE",
"410 71 OFFCURVE",
"329 71 CURVE SMOOTH",
"234 71 OFFCURVE",
"232 146 OFFCURVE",
"232 244 CURVE SMOOTH",
"232 634 LINE",
"527 634 LINE",
"527 714 LINE",
"20 714 LINE",
"20 634 LINE",
"142 634 LINE",
"142 243 LINE SMOOTH",
"142 84 OFFCURVE",
"170 -11 OFFCURVE",
"329 -11 CURVE SMOOTH"
);
}
);
width = 567;
}
);
unicode = 16B18;
},
{
glyphname = u16B19;
lastChange = "2017-12-01 20:58:02 +0000";
layers = (
{
layerId = UUID0;
paths = (
{
closed = 1;
nodes = (
"272 -11 OFFCURVE",
"330 43 OFFCURVE",
"330 160 CURVE SMOOTH",
"330 564 LINE",
"534 564 LINE",
"534 0 LINE",
"624 0 LINE",
"624 714 LINE",
"534 714 LINE",
"534 644 LINE",
"89 644 LINE",
"89 564 LINE",
"240 564 LINE",
"240 165 LINE SMOOTH",
"240 102 OFFCURVE",
"220 71 OFFCURVE",
"185 71 CURVE SMOOTH",
"150 71 OFFCURVE",
"130 102 OFFCURVE",
"130 165 CURVE SMOOTH",
"130 170 LINE",
"40 170 LINE",
"40 157 LINE SMOOTH",
"40 49 OFFCURVE",
"99 -11 OFFCURVE",
"180 -11 CURVE SMOOTH"
);
}
);
width = 714;
}
);
rightMetricsKey = u16B2B;
unicode = 16B19;
},
{
glyphname = u16B1A;
lastChange = "2017-12-01 20:58:02 +0000";
layers = (
{
layerId = UUID0;
paths = (
{
closed = 1;
nodes = (
"634 0 LINE SMOOTH",
"762 0 OFFCURVE",
"823 69 OFFCURVE",
"823 159 CURVE SMOOTH",
"823 555 LINE SMOOTH",
"823 645 OFFCURVE",
"770 714 OFFCURVE",
"666 714 CURVE SMOOTH",
"457 714 LINE SMOOTH",
"353 714 OFFCURVE",
"300 645 OFFCURVE",
"300 555 CURVE SMOOTH",
"300 480 LINE",
"390 480 LINE",
"390 540 LINE SMOOTH",
"390 594 OFFCURVE",
"413 634 OFFCURVE",
"470 634 CURVE SMOOTH",
"653 634 LINE SMOOTH",
"710 634 OFFCURVE",
"733 594 OFFCURVE",
"733 540 CURVE SMOOTH",
"733 387 LINE",
"710 404 OFFCURVE",
"676 419 OFFCURVE",
"628 419 CURVE SMOOTH",
"476 419 LINE SMOOTH",
"361 419 OFFCURVE",
"301 342 OFFCURVE",
"301 258 CURVE SMOOTH",
"301 159 LINE SMOOTH",
"301 59 OFFCURVE",
"361 0 OFFCURVE",
"486 0 CURVE SMOOTH"
);
},
{
closed = 1;
nodes = (
"180 0 LINE",
"180 714 LINE",
"90 714 LINE",
"90 0 LINE"
);
},
{
closed = 1;
nodes = (
"434 80 OFFCURVE",
"391 110 OFFCURVE",
"391 174 CURVE SMOOTH",
"391 243 LINE SMOOTH",
"391 293 OFFCURVE",
"421 339 OFFCURVE",
"496 339 CURVE SMOOTH",
"628 339 LINE SMOOTH",
"701 339 OFFCURVE",
"733 295 OFFCURVE",
"733 246 CURVE SMOOTH",
"733 174 LINE SMOOTH",
"733 120 OFFCURVE",
"694 80 OFFCURVE",
"625 80 CURVE",
"506 80 LINE SMOOTH"
);
}
);
width = 903;
}
);
leftMetricsKey = u16B2B;
unicode = 16B1A;
},
{
glyphname = u16B1B;
lastChange = "2017-12-01 20:58:02 +0000";
layers = (
{
layerId = UUID0;
paths = (
{
closed = 1;
nodes = (
"631 -11 OFFCURVE",
"660 83 OFFCURVE",
"660 231 CURVE SMOOTH",
"660 491 LINE",
"676 484 OFFCURVE",
"693 480 OFFCURVE",
"712 480 CURVE SMOOTH",
"780 480 OFFCURVE",
"839 534 OFFCURVE",
"839 603 CURVE SMOOTH",
"839 672 OFFCURVE",
"780 725 OFFCURVE",
"712 725 CURVE SMOOTH",
"595 725 OFFCURVE",
"570 620 OFFCURVE",
"570 564 CURVE SMOOTH",
"570 231 LINE SMOOTH",
"570 143 OFFCURVE",
"570 71 OFFCURVE",
"477 71 CURVE SMOOTH",
"382 71 OFFCURVE",
"380 134 OFFCURVE",
"380 232 CURVE SMOOTH",
"380 714 LINE",
"290 714 LINE",
"290 233 LINE SMOOTH",
"290 74 OFFCURVE",
"318 -11 OFFCURVE",
"472 -11 CURVE SMOOTH"
);
},
{
closed = 1;
nodes = (
"180 0 LINE",
"180 714 LINE",
"90 714 LINE",
"90 0 LINE"
);
},
{
closed = 1;
nodes = (
"682 550 OFFCURVE",
"660 572 OFFCURVE",
"660 603 CURVE SMOOTH",
"660 634 OFFCURVE",
"682 655 OFFCURVE",
"712 655 CURVE SMOOTH",
"742 655 OFFCURVE",
"765 635 OFFCURVE",
"765 603 CURVE SMOOTH",
"765 572 OFFCURVE",
"742 550 OFFCURVE",
"712 550 CURVE SMOOTH"
);
}
);
width = 869;
}
);
leftMetricsKey = u16B2B;
rightKerningGroup = u16B1F;
unicode = 16B1B;
},
{
glyphname = u16B1C;
lastChange = "2017-12-01 20:58:02 +0000";
layers = (
{
layerId = UUID0;
paths = (
{
closed = 1;
nodes = (
"354 0 LINE SMOOTH",
"458 0 OFFCURVE",
"511 69 OFFCURVE",
"511 159 CURVE SMOOTH",
"511 215 LINE",
"421 215 LINE",
"421 174 LINE SMOOTH",
"421 120 OFFCURVE",
"398 80 OFFCURVE",
"341 80 CURVE SMOOTH",
"250 80 LINE SMOOTH",
"193 80 OFFCURVE",
"170 120 OFFCURVE",
"170 174 CURVE SMOOTH",
"170 540 LINE SMOOTH",
"170 594 OFFCURVE",
"193 634 OFFCURVE",
"250 634 CURVE SMOOTH",
"341 634 LINE SMOOTH",
"394 634 OFFCURVE",
"418 599 OFFCURVE",
"421 550 CURVE",
"349 550 LINE",
"349 480 LINE",
"569 480 LINE",
"569 550 LINE",
"511 550 LINE",
"511 555 LINE SMOOTH",
"511 645 OFFCURVE",
"458 714 OFFCURVE",
"354 714 CURVE SMOOTH",
"237 714 LINE SMOOTH",
"133 714 OFFCURVE",
"80 645 OFFCURVE",
"80 555 CURVE SMOOTH",
"80 159 LINE SMOOTH",
"80 69 OFFCURVE",
"133 0 OFFCURVE",
"237 0 CURVE SMOOTH"
);
}
);
width = 599;
}
);
unicode = 16B1C;
},
{
glyphname = u16B1D;
lastChange = "2017-12-01 20:58:02 +0000";
layers = (
{
layerId = UUID0;
paths = (
{
closed = 1;
nodes = (
"180 0 LINE",
"180 134 LINE",
"328 338 LINE",
"512 0 LINE",
"612 0 LINE",
"384 416 LINE",
"601 714 LINE",
"501 714 LINE",
"180 262 LINE",
"180 714 LINE",
"90 714 LINE",
"90 0 LINE"
);
}
);
width = 622;
}
);
leftMetricsKey = u16B2B;
unicode = 16B1D;
},
{
glyphname = u16B1E;
lastChange = "2017-12-01 20:58:02 +0000";
layers = (
{
layerId = UUID0;
paths = (
{
closed = 1;
nodes = (
"405 0 LINE",
"405 482 LINE SMOOTH",
"405 580 OFFCURVE",
"407 643 OFFCURVE",
"502 643 CURVE SMOOTH",
"595 643 OFFCURVE",
"595 571 OFFCURVE",
"595 483 CURVE SMOOTH",
"595 0 LINE",
"685 0 LINE",
"685 483 LINE SMOOTH",
"685 631 OFFCURVE",
"656 725 OFFCURVE",
"497 725 CURVE SMOOTH",
"343 725 OFFCURVE",
"315 640 OFFCURVE",
"315 481 CURVE SMOOTH",
"315 80 LINE",
"180 80 LINE",
"180 714 LINE",
"90 714 LINE",
"90 0 LINE"
);
}
);
width = 765;
}
);
leftMetricsKey = u16B2B;
unicode = 16B1E;
},
{
glyphname = u16B1F;
lastChange = "2017-12-01 20:58:02 +0000";
layers = (
{
layerId = UUID0;
paths = (
{
closed = 1;
nodes = (
"180 0 LINE",
"180 634 LINE",
"364 634 LINE",
"364 0 LINE",
"454 0 LINE",
"454 634 LINE",
"504 634 LINE",
"499 620 OFFCURVE",
"496 606 OFFCURVE",
"496 591 CURVE SMOOTH",
"496 522 OFFCURVE",
"554 469 OFFCURVE",
"622 469 CURVE SMOOTH",
"690 469 OFFCURVE",
"749 522 OFFCURVE",
"749 591 CURVE SMOOTH",
"749 660 OFFCURVE",
"690 714 OFFCURVE",
"622 714 CURVE SMOOTH",
"90 714 LINE",
"90 0 LINE"
);
},
{
closed = 1;
nodes = (
"592 539 OFFCURVE",
"570 560 OFFCURVE",
"570 591 CURVE SMOOTH",
"570 622 OFFCURVE",
"592 644 OFFCURVE",
"622 644 CURVE SMOOTH",
"652 644 OFFCURVE",
"675 622 OFFCURVE",
"675 591 CURVE SMOOTH",
"675 559 OFFCURVE",
"652 539 OFFCURVE",
"622 539 CURVE SMOOTH"
);
}
);
width = 779;
}
);
leftMetricsKey = u16B2B;
rightKerningGroup = u16B1F;
unicode = 16B1F;
},
{
glyphname = u16B20;
lastChange = "2017-12-01 20:58:02 +0000";
layers = (
{
layerId = UUID0;
paths = (
{
closed = 1;
nodes = (
"436 -11 OFFCURVE",
"480 83 OFFCURVE",
"480 231 CURVE SMOOTH",
"480 424 LINE",
"671 424 LINE",
"671 504 LINE",
"480 504 LINE",
"480 634 LINE",
"671 634 LINE",
"671 714 LINE",
"390 714 LINE",
"390 231 LINE SMOOTH",
"390 143 OFFCURVE",
"375 71 OFFCURVE",
"282 71 CURVE SMOOTH",
"187 71 OFFCURVE",
"170 134 OFFCURVE",
"170 232 CURVE SMOOTH",
"170 714 LINE",
"80 714 LINE",
"80 233 LINE SMOOTH",
"80 74 OFFCURVE",
"123 -11 OFFCURVE",
"277 -11 CURVE SMOOTH"
);
}
);
width = 711;
}
);
unicode = 16B20;
},
{
glyphname = u16B21;
lastChange = "2017-12-01 20:58:02 +0000";
layers = (
{
layerId = UUID0;
paths = (
{
closed = 1;
nodes = (
"521 -11 OFFCURVE",
"590 71 OFFCURVE",
"590 219 CURVE SMOOTH",
"590 714 LINE",
"500 714 LINE",
"500 444 LINE",
"170 444 LINE",
"170 714 LINE",
"80 714 LINE",
"80 221 LINE SMOOTH",
"80 62 OFFCURVE",
"154 -11 OFFCURVE",
"332 -11 CURVE SMOOTH"
);
},
{
closed = 1;
nodes = (
"212 71 OFFCURVE",
"170 107 OFFCURVE",
"170 223 CURVE SMOOTH",
"170 364 LINE",
"500 364 LINE",
"500 224 LINE SMOOTH",
"500 116 OFFCURVE",
"466 71 OFFCURVE",
"337 71 CURVE SMOOTH"
);
}
);
width = 670;
}
);
unicode = 16B21;
},
{
glyphname = u16B22;
lastChange = "2017-12-01 20:58:02 +0000";
layers = (
{
layerId = UUID0;
paths = (
{
closed = 1;
nodes = (
"180 0 LINE",
"180 469 LINE",
"193 545 OFFCURVE",
"305 643 OFFCURVE",
"407 643 CURVE SMOOTH",
"477 643 OFFCURVE",
"489 602 OFFCURVE",
"489 514 CURVE SMOOTH",
"489 0 LINE",
"579 0 LINE",
"579 511 LINE SMOOTH",
"579 644 OFFCURVE",
"545 725 OFFCURVE",
"418 725 CURVE SMOOTH",
"310 725 OFFCURVE",
"229 664 OFFCURVE",
"180 608 CURVE",
"180 714 LINE",
"90 714 LINE",
"90 0 LINE"
);
}
);
width = 659;
}
);
leftMetricsKey = u16B2B;
unicode = 16B22;
},
{
glyphname = u16B23;
lastChange = "2017-12-01 20:58:02 +0000";
layers = (
{
layerId = UUID0;
paths = (
{
closed = 1;
nodes = (
"555 0 LINE",
"555 80 LINE",
"180 80 LINE",
"180 334 LINE",
"555 334 LINE",
"555 414 LINE",
"180 414 LINE",
"180 634 LINE",
"555 634 LINE",
"555 714 LINE",
"90 714 LINE",
"90 0 LINE"
);
}
);
width = 625;
}
);
leftMetricsKey = u16B2B;
unicode = 16B23;
},
{
glyphname = u16B24;
lastChange = "2017-12-01 20:58:02 +0000";
layers = (
{
layerId = UUID0;
paths = (
{
closed = 1;
nodes = (
"296 -11 OFFCURVE",
"343 21 OFFCURVE",
"375 69 CURVE",
"407 21 OFFCURVE",
"454 -11 OFFCURVE",
"510 -11 CURVE SMOOTH",
"632 -11 OFFCURVE",
"670 83 OFFCURVE",
"670 231 CURVE SMOOTH",
"670 491 LINE",
"686 484 OFFCURVE",
"703 480 OFFCURVE",
"722 480 CURVE SMOOTH",
"790 480 OFFCURVE",
"849 534 OFFCURVE",
"849 603 CURVE SMOOTH",
"849 672 OFFCURVE",
"790 725 OFFCURVE",
"722 725 CURVE SMOOTH",
"605 725 OFFCURVE",
"580 620 OFFCURVE",
"580 564 CURVE SMOOTH",
"580 231 LINE SMOOTH",
"580 123 OFFCURVE",
"561 71 OFFCURVE",
"507 71 CURVE SMOOTH",
"450 71 OFFCURVE",
"420 123 OFFCURVE",
"420 229 CURVE SMOOTH",
"420 714 LINE",
"330 714 LINE",
"330 231 LINE SMOOTH",
"330 124 OFFCURVE",
"301 71 OFFCURVE",
"243 71 CURVE SMOOTH",
"189 71 OFFCURVE",
"170 123 OFFCURVE",
"170 231 CURVE SMOOTH",
"170 714 LINE",
"80 714 LINE",
"80 231 LINE SMOOTH",
"80 83 OFFCURVE",
"118 -11 OFFCURVE",
"240 -11 CURVE SMOOTH"
);
},
{
closed = 1;
nodes = (
"692 550 OFFCURVE",
"670 572 OFFCURVE",
"670 603 CURVE SMOOTH",
"670 634 OFFCURVE",
"692 655 OFFCURVE",
"722 655 CURVE SMOOTH",
"752 655 OFFCURVE",
"775 635 OFFCURVE",
"775 603 CURVE SMOOTH",
"775 572 OFFCURVE",
"752 550 OFFCURVE",
"722 550 CURVE SMOOTH"
);
}
);
width = 879;
}
);
rightKerningGroup = u16B1F;
unicode = 16B24;
},
{
glyphname = u16B25;
lastChange = "2017-12-01 20:58:02 +0000";
layers = (
{
layerId = UUID0;
paths = (
{
closed = 1;
nodes = (
"560 0 LINE",
"560 180 LINE",
"624 180 LINE",
"624 260 LINE",
"560 260 LINE",
"560 714 LINE",
"470 714 LINE",
"470 260 LINE",
"170 260 LINE",
"170 714 LINE",
"80 714 LINE",
"80 180 LINE",
"470 180 LINE",
"470 0 LINE"
);
}
);
width = 664;
}
);
unicode = 16B25;
},
{
glyphname = u16B26;
lastChange = "2017-12-01 20:58:02 +0000";
layers = (
{
layerId = UUID0;
paths = (
{
closed = 1;
nodes = (
"170 0 LINE",
"170 533 LINE SMOOTH",
"170 580 OFFCURVE",
"182 643 OFFCURVE",
"247 643 CURVE SMOOTH",
"300 643 OFFCURVE",
"358 581 OFFCURVE",
"410 544 CURVE",
"410 0 LINE",
"500 0 LINE",
"500 502 LINE",
"511 500 OFFCURVE",
"523 499 OFFCURVE",
"538 499 CURVE SMOOTH",
"603 499 OFFCURVE",
"658 544 OFFCURVE",
"658 613 CURVE SMOOTH",
"658 682 OFFCURVE",
"601 725 OFFCURVE",
"541 725 CURVE SMOOTH",
"477 725 OFFCURVE",
"434 690 OFFCURVE",
"417 626 CURVE",
"369 667 OFFCURVE",
"312 725 OFFCURVE",
"241 725 CURVE SMOOTH",
"107 725 OFFCURVE",
"80 620 OFFCURVE",
"80 533 CURVE SMOOTH",
"80 0 LINE"
);
},
{
closed = 1;
nodes = (
"517 565 OFFCURVE",
"495 586 OFFCURVE",
"495 611 CURVE SMOOTH",
"495 636 OFFCURVE",
"517 658 OFFCURVE",
"542 658 CURVE SMOOTH",
"567 658 OFFCURVE",
"588 636 OFFCURVE",
"588 611 CURVE SMOOTH",
"588 586 OFFCURVE",
"567 565 OFFCURVE",
"542 565 CURVE SMOOTH"
);
}
);
width = 688;
}
);
rightKerningGroup = u16B1F;
unicode = 16B26;
},
{
glyphname = u16B27;
lastChange = "2017-12-01 20:58:02 +0000";
layers = (
{
layerId = UUID0;
paths = (
{
closed = 1;
nodes = (
"352 -11 OFFCURVE",
"387 74 OFFCURVE",
"387 208 CURVE SMOOTH",
"387 322 LINE",
"614 322 LINE",
"614 0 LINE",
"704 0 LINE",
"704 714 LINE",
"614 714 LINE",
"614 402 LINE",
"387 402 LINE",
"387 506 LINE SMOOTH",
"387 640 OFFCURVE",
"352 725 OFFCURVE",
"212 725 CURVE SMOOTH",
"74 725 OFFCURVE",
"40 636 OFFCURVE",
"40 553 CURVE SMOOTH",
"40 544 LINE",
"130 544 LINE",
"130 552 LINE SMOOTH",
"130 583 OFFCURVE",
"131 643 OFFCURVE",
"212 643 CURVE SMOOTH",
"286 643 OFFCURVE",
"297 578 OFFCURVE",
"297 505 CURVE SMOOTH",
"297 209 LINE SMOOTH",
"297 136 OFFCURVE",
"286 71 OFFCURVE",
"212 71 CURVE SMOOTH",
"131 71 OFFCURVE",
"130 131 OFFCURVE",
"130 162 CURVE SMOOTH",
"130 170 LINE",
"40 170 LINE",
"40 161 LINE SMOOTH",
"40 78 OFFCURVE",
"74 -11 OFFCURVE",
"212 -11 CURVE SMOOTH"
);
}
);
width = 794;
}
);
rightMetricsKey = u16B2B;
unicode = 16B27;
},
{
glyphname = u16B28;
lastChange = "2017-12-01 20:58:02 +0000";
layers = (
{
layerId = UUID0;
paths = (
{
closed = 1;
nodes = (
"170 0 LINE",
"170 252 LINE",
"501 252 LINE",
"501 0 LINE",
"591 0 LINE",
"591 555 LINE SMOOTH",
"591 645 OFFCURVE",
"538 714 OFFCURVE",
"434 714 CURVE SMOOTH",
"217 714 LINE SMOOTH",
"113 714 OFFCURVE",
"60 645 OFFCURVE",
"60 555 CURVE SMOOTH",
"60 480 LINE",
"150 480 LINE",
"150 540 LINE SMOOTH",
"150 594 OFFCURVE",
"173 634 OFFCURVE",
"230 634 CURVE SMOOTH",
"421 634 LINE SMOOTH",
"478 634 OFFCURVE",
"501 594 OFFCURVE",
"501 540 CURVE SMOOTH",
"501 332 LINE",
"80 332 LINE",
"80 0 LINE"
);
}
);
width = 671;
}
);
unicode = 16B28;
},
{
glyphname = u16B29;
lastChange = "2017-12-01 20:58:02 +0000";
layers = (
{
layerId = UUID0;
paths = (
{
closed = 1;
nodes = (
"274 -11 OFFCURVE",
"299 94 OFFCURVE",
"299 150 CURVE SMOOTH",
"299 342 LINE",
"492 342 LINE",
"492 150 LINE SMOOTH",
"492 94 OFFCURVE",
"517 -11 OFFCURVE",
"634 -11 CURVE SMOOTH",
"702 -11 OFFCURVE",
"761 42 OFFCURVE",
"761 111 CURVE SMOOTH",
"761 180 OFFCURVE",
"702 234 OFFCURVE",
"634 234 CURVE SMOOTH",
"615 234 OFFCURVE",
"598 230 OFFCURVE",
"582 223 CURVE",
"582 714 LINE",
"492 714 LINE",
"492 422 LINE",
"299 422 LINE",
"299 714 LINE",
"209 714 LINE",
"209 223 LINE",
"193 230 OFFCURVE",
"176 234 OFFCURVE",
"157 234 CURVE SMOOTH",
"89 234 OFFCURVE",
"30 180 OFFCURVE",
"30 111 CURVE SMOOTH",
"30 42 OFFCURVE",
"89 -11 OFFCURVE",
"157 -11 CURVE SMOOTH"
);
},
{
closed = 1;
nodes = (
"127 59 OFFCURVE",
"104 79 OFFCURVE",
"104 111 CURVE SMOOTH",
"104 142 OFFCURVE",
"127 164 OFFCURVE",
"157 164 CURVE SMOOTH",
"187 164 OFFCURVE",
"209 142 OFFCURVE",
"209 111 CURVE SMOOTH",
"209 80 OFFCURVE",
"187 59 OFFCURVE",
"157 59 CURVE SMOOTH"
);
},
{
closed = 1;
nodes = (
"604 59 OFFCURVE",
"582 80 OFFCURVE",
"582 111 CURVE SMOOTH",
"582 142 OFFCURVE",
"604 164 OFFCURVE",
"634 164 CURVE SMOOTH",
"664 164 OFFCURVE",
"687 142 OFFCURVE",
"687 111 CURVE SMOOTH",
"687 79 OFFCURVE",
"664 59 OFFCURVE",
"634 59 CURVE SMOOTH"
);
}
);
width = 791;
}
);
leftKerningGroup = u16B29;
rightKerningGroup = u16B29;
unicode = 16B29;
},
{
glyphname = u16B2A;
lastChange = "2017-12-01 20:58:02 +0000";
layers = (
{
layerId = UUID0;
paths = (
{
closed = 1;
nodes = (
"170 0 LINE",
"170 483 LINE SMOOTH",
"170 591 OFFCURVE",
"189 643 OFFCURVE",
"243 643 CURVE SMOOTH",
"301 643 OFFCURVE",
"330 590 OFFCURVE",
"330 483 CURVE SMOOTH",
"330 0 LINE",
"420 0 LINE",
"420 485 LINE SMOOTH",
"420 591 OFFCURVE",
"450 643 OFFCURVE",
"507 643 CURVE SMOOTH",
"561 643 OFFCURVE",
"580 591 OFFCURVE",
"580 483 CURVE SMOOTH",
"580 0 LINE",
"670 0 LINE",
"670 483 LINE SMOOTH",
"670 631 OFFCURVE",
"632 725 OFFCURVE",
"510 725 CURVE SMOOTH",
"454 725 OFFCURVE",
"407 693 OFFCURVE",
"375 645 CURVE",
"343 693 OFFCURVE",
"296 725 OFFCURVE",
"240 725 CURVE SMOOTH",
"118 725 OFFCURVE",
"80 631 OFFCURVE",
"80 483 CURVE SMOOTH",
"80 0 LINE"
);
}
);
width = 750;
}
);
unicode = 16B2A;
},
{
glyphname = u16B2B;
lastChange = "2017-12-01 20:58:02 +0000";
layers = (
{
layerId = UUID0;
paths = (
{
closed = 1;
nodes = (
"180 0 LINE",
"180 559 LINE",
"321 278 LINE",
"371 278 LINE",
"512 553 LINE",
"512 0 LINE",
"602 0 LINE",
"602 714 LINE",
"512 714 LINE",
"346 399 LINE",
"180 714 LINE",
"90 714 LINE",
"90 0 LINE"
);
}
);
width = 692;
}
);
unicode = 16B2B;
},
{
glyphname = u16B2C;
lastChange = "2017-12-01 20:58:02 +0000";
layers = (
{
layerId = UUID0;
paths = (
{
closed = 1;
nodes = (
"436 -11 OFFCURVE",
"480 83 OFFCURVE",
"480 231 CURVE SMOOTH",
"480 634 LINE",
"671 634 LINE",
"671 714 LINE",
"390 714 LINE",
"390 231 LINE SMOOTH",
"390 143 OFFCURVE",
"375 71 OFFCURVE",
"282 71 CURVE SMOOTH",
"187 71 OFFCURVE",
"170 134 OFFCURVE",
"170 232 CURVE SMOOTH",
"170 714 LINE",
"80 714 LINE",
"80 233 LINE SMOOTH",
"80 74 OFFCURVE",
"123 -11 OFFCURVE",
"277 -11 CURVE SMOOTH"
);
}
);
width = 701;
}
);
rightKerningGroup = u16B1F;
unicode = 16B2C;
},
{
glyphname = u16B2D;
lastChange = "2017-12-01 20:58:02 +0000";
layers = (
{
layerId = UUID0;
paths = (
{
closed = 1;
nodes = (
"436 -11 OFFCURVE",
"480 83 OFFCURVE",
"480 231 CURVE SMOOTH",
"480 294 LINE",
"390 294 LINE",
"390 231 LINE SMOOTH",
"390 143 OFFCURVE",
"375 71 OFFCURVE",
"282 71 CURVE SMOOTH",
"187 71 OFFCURVE",
"170 134 OFFCURVE",
"170 232 CURVE SMOOTH",
"170 634 LINE",
"521 634 LINE",
"521 714 LINE",
"80 714 LINE",
"80 233 LINE SMOOTH",
"80 74 OFFCURVE",
"123 -11 OFFCURVE",
"277 -11 CURVE SMOOTH"
);
}
);
width = 561;
}
);
unicode = 16B2D;
},
{
glyphname = u16B2E;
lastChange = "2017-12-01 20:58:02 +0000";
layers = (
{
layerId = UUID0;
paths = (
{
closed = 1;
nodes = (
"101 0 LINE",
"126 80 LINE",
"469 80 LINE",
"495 0 LINE",
"588 0 LINE",
"350 717 LINE",
"249 717 LINE",
"10 0 LINE"
);
},
{
closed = 1;
nodes = (
"267 517 LINE SMOOTH",
"275 541 OFFCURVE",
"288 586 OFFCURVE",
"298 627 CURVE",
"305 602 OFFCURVE",
"327 533 OFFCURVE",
"332 517 CURVE SMOOTH",
"444 160 LINE",
"152 160 LINE"
);
}
);
width = 598;
}
);
leftKerningGroup = u16B2E;
rightKerningGroup = u16B2E;
unicode = 16B2E;
},
{
glyphname = u16B2F;
lastChange = "2017-12-01 20:58:02 +0000";
layers = (
{
layerId = UUID0;
paths = (
{
closed = 1;
nodes = (
"349 0 LINE",
"588 717 LINE",
"497 717 LINE",
"439 537 LINE",
"160 537 LINE",
"103 717 LINE",
"10 717 LINE",
"248 0 LINE"
);
},
{
closed = 1;
nodes = (
"293 115 OFFCURVE",
"271 184 OFFCURVE",
"266 200 CURVE SMOOTH",
"185 457 LINE",
"413 457 LINE",
"331 200 LINE SMOOTH",
"323 176 OFFCURVE",
"310 131 OFFCURVE",
"300 90 CURVE"
);
}
);
width = 598;
}
);
leftKerningGroup = u16B2F;
rightKerningGroup = u16B2F;
unicode = 16B2F;
},
{
glyphname = u16B30;
lastChange = "2017-12-01 20:58:02 +0000";
layers = (
{
layerId = UUID0;
paths = (
{
closed = 1;
nodes = (
"40 790 OFFCURVE",
"73 822 OFFCURVE",
"73 862 CURVE SMOOTH",
"73 902 OFFCURVE",
"40 935 OFFCURVE",
"0 935 CURVE SMOOTH",
"-40 935 OFFCURVE",
"-72 902 OFFCURVE",
"-72 862 CURVE SMOOTH",
"-72 822 OFFCURVE",
"-40 790 OFFCURVE",
"0 790 CURVE SMOOTH"
);
}
);
width = 0;
}
);
unicode = 16B30;
},
{
glyphname = u16B31;
lastChange = "2017-12-01 20:58:02 +0000";
layers = (
{
layerId = UUID0;
paths = (
{
closed = 1;
nodes = (
"100 970 LINE",
"-100 970 LINE",
"0 770 LINE"
);
}
);
width = 0;
}
);
unicode = 16B31;
},
{
glyphname = u16B32;
lastChange = "2017-12-01 20:58:02 +0000";
layers = (
{
layerId = UUID0;
paths = (
{
closed = 1;
nodes = (
"173 800 LINE",
"173 874 LINE",
"-172 874 LINE",
"-172 800 LINE"
);
}
);
width = 0;
}
);
unicode = 16B32;
},
{
glyphname = u16B33;
lastChange = "2017-12-01 20:58:02 +0000";
layers = (
{
layerId = UUID0;
paths = (
{
closed = 1;
nodes = (
"-111 800 LINE",
"0 918 LINE",
"112 800 LINE",
"216 800 LINE",
"10 1019 LINE",
"-9 1019 LINE",
"-215 800 LINE"
);
}
);
width = 0;
}
);
unicode = 16B33;
},
{
glyphname = u16B34;
lastChange = "2017-12-01 20:58:02 +0000";
layers = (
{
layerId = UUID0;
paths = (
{
closed = 1;
nodes = (
"173 800 LINE",
"173 874 LINE",
"-172 874 LINE",
"-172 800 LINE"
);
},
{
closed = 1;
nodes = (
"40 910 OFFCURVE",
"73 942 OFFCURVE",
"73 982 CURVE SMOOTH",
"73 1022 OFFCURVE",
"40 1055 OFFCURVE",
"0 1055 CURVE SMOOTH",
"-40 1055 OFFCURVE",
"-72 1022 OFFCURVE",
"-72 982 CURVE SMOOTH",
"-72 942 OFFCURVE",
"-40 910 OFFCURVE",
"0 910 CURVE SMOOTH"
);
}
);
width = 0;
}
);
unicode = 16B34;
},
{
glyphname = u16B35;
lastChange = "2017-12-01 20:58:02 +0000";
layers = (
{
layerId = UUID0;
paths = (
{
closed = 1;
nodes = (
"173 800 LINE",
"173 874 LINE",
"43 874 LINE",
"43 1028 LINE",
"-42 1028 LINE",
"-42 874 LINE",
"-172 874 LINE",
"-172 800 LINE"
);
}
);
width = 0;
}
);
unicode = 16B35;
},
{
glyphname = u16B36;
lastChange = "2017-12-01 20:58:02 +0000";
layers = (
{
layerId = UUID0;
paths = (
{
closed = 1;
nodes = (
"170 790 OFFCURVE",
"203 822 OFFCURVE",
"203 862 CURVE SMOOTH",
"203 902 OFFCURVE",
"170 935 OFFCURVE",
"130 935 CURVE SMOOTH",
"90 935 OFFCURVE",
"58 902 OFFCURVE",
"58 862 CURVE SMOOTH",
"58 822 OFFCURVE",
"90 790 OFFCURVE",
"130 790 CURVE SMOOTH"
);
},
{
closed = 1;
nodes = (
"-90 790 OFFCURVE",
"-57 822 OFFCURVE",
"-57 862 CURVE SMOOTH",
"-57 902 OFFCURVE",
"-90 935 OFFCURVE",
"-130 935 CURVE SMOOTH",
"-170 935 OFFCURVE",
"-202 902 OFFCURVE",
"-202 862 CURVE SMOOTH",
"-202 822 OFFCURVE",
"-170 790 OFFCURVE",
"-130 790 CURVE SMOOTH"
);
}
);
width = 0;
}
);
unicode = 16B36;
},
{
glyphname = u16B37;
lastChange = "2017-12-01 20:58:02 +0000";
layers = (
{
layerId = UUID0;
paths = (
{
closed = 1;
nodes = (
"163 190 LINE SMOOTH",
"267 190 OFFCURVE",
"320 259 OFFCURVE",
"320 349 CURVE SMOOTH",
"320 405 LINE",
"344 387 OFFCURVE",
"374 376 OFFCURVE",
"412 376 CURVE SMOOTH",
"453 376 OFFCURVE",
"485 388 OFFCURVE",
"510 407 CURVE",
"510 349 LINE SMOOTH",
"510 259 OFFCURVE",
"563 190 OFFCURVE",
"667 190 CURVE SMOOTH",
"810 190 LINE",
"810 270 LINE",
"680 270 LINE SMOOTH",
"623 270 OFFCURVE",
"600 310 OFFCURVE",
"600 364 CURVE SMOOTH",
"600 714 LINE",
"510 714 LINE",
"510 638 LINE SMOOTH",
"510 530 OFFCURVE",
"506 458 OFFCURVE",
"417 458 CURVE SMOOTH",
"332 458 OFFCURVE",
"320 521 OFFCURVE",
"320 637 CURVE SMOOTH",
"320 714 LINE",
"230 714 LINE",
"230 364 LINE SMOOTH",
"230 310 OFFCURVE",
"207 270 OFFCURVE",
"150 270 CURVE SMOOTH",
"20 270 LINE",
"20 190 LINE"
);
},
{
closed = 1;
nodes = (
"452 -11 OFFCURVE",
"485 21 OFFCURVE",
"485 61 CURVE SMOOTH",
"485 101 OFFCURVE",
"452 134 OFFCURVE",
"412 134 CURVE SMOOTH",
"372 134 OFFCURVE",
"340 101 OFFCURVE",
"340 61 CURVE SMOOTH",
"340 21 OFFCURVE",
"372 -11 OFFCURVE",
"412 -11 CURVE SMOOTH"
);
}
);
width = 830;
}
);
unicode = 16B37;
},
{
glyphname = u16B38;
lastChange = "2017-12-01 20:58:02 +0000";
layers = (
{
layerId = UUID0;
paths = (
{
closed = 1;
nodes = (
"376 170 LINE",
"376 634 LINE",
"570 634 LINE",
"570 714 LINE",
"80 714 LINE",
"80 634 LINE",
"286 634 LINE",
"286 170 LINE"
);
},
{
closed = 1;
nodes = (
"511 -11 OFFCURVE",
"570 75 OFFCURVE",
"570 223 CURVE SMOOTH",
"570 490 LINE",
"480 490 LINE",
"480 231 LINE SMOOTH",
"480 123 OFFCURVE",
"456 71 OFFCURVE",
"327 71 CURVE SMOOTH",
"202 71 OFFCURVE",
"170 114 OFFCURVE",
"170 230 CURVE SMOOTH",
"170 490 LINE",
"80 490 LINE",
"80 225 LINE SMOOTH",
"80 66 OFFCURVE",
"144 -11 OFFCURVE",
"322 -11 CURVE SMOOTH"
);
}
);
width = 650;
}
);
unicode = 16B38;
},
{
glyphname = u16B39;
lastChange = "2017-12-01 20:58:02 +0000";
layers = (
{
layerId = UUID0;
paths = (
{
closed = 1;
nodes = (
"92 0 LINE SMOOTH",
"145 0 OFFCURVE",
"188 9 OFFCURVE",
"220 27 CURVE",
"250 0 LINE",
"347 0 LINE",
"270 70 LINE",
"288 96 OFFCURVE",
"297 127 OFFCURVE",
"297 164 CURVE SMOOTH",
"297 173 LINE SMOOTH",
"297 257 OFFCURVE",
"230 339 OFFCURVE",
"102 339 CURVE SMOOTH",
"50 339 LINE",
"50 264 LINE",
"107 264 LINE SMOOTH",
"172 264 OFFCURVE",
"212 228 OFFCURVE",
"212 178 CURVE SMOOTH",
"212 159 LINE SMOOTH",
"212 147 OFFCURVE",
"210 137 OFFCURVE",
"207 128 CURVE",
"147 183 LINE",
"50 183 LINE",
"158 84 LINE",
"140 77 OFFCURVE",
"119 75 OFFCURVE",
"97 75 CURVE SMOOTH",
"50 75 LINE",
"50 0 LINE"
);
}
);
width = 397;
}
);
unicode = 16B39;
},
{
glyphname = u16B3A;
lastChange = "2017-12-01 20:58:02 +0000";
layers = (
{
layerId = UUID0;
paths = (
{
closed = 1;
nodes = (
"496 -11 OFFCURVE",
"555 73 OFFCURVE",
"555 173 CURVE SMOOTH",
"555 271 OFFCURVE",
"492 344 OFFCURVE",
"388 419 CURVE SMOOTH",
"323 466 LINE",
"339 513 OFFCURVE",
"351 559 OFFCURVE",
"351 600 CURVE SMOOTH",
"351 674 OFFCURVE",
"311 725 OFFCURVE",
"223 725 CURVE SMOOTH",
"156 725 OFFCURVE",
"111 683 OFFCURVE",
"111 614 CURVE SMOOTH",
"111 551 OFFCURVE",
"146 503 OFFCURVE",
"185 474 CURVE SMOOTH",
"226 443 LINE",
"187 328 LINE",
"132 452 LINE",
"50 452 LINE",
"152 226 LINE",
"76 0 LINE",
"166 0 LINE",
"204 112 LINE",
"241 41 OFFCURVE",
"287 -11 OFFCURVE",
"388 -11 CURVE SMOOTH"
);
},
{
closed = 1;
nodes = (
"309 71 OFFCURVE",
"268 144 OFFCURVE",
"238 213 CURVE",
"297 393 LINE",
"354 352 LINE SMOOTH",
"411 311 OFFCURVE",
"463 256 OFFCURVE",
"463 174 CURVE SMOOTH",
"463 110 OFFCURVE",
"440 71 OFFCURVE",
"385 71 CURVE SMOOTH"
);
},
{
closed = 1;
nodes = (
"224 538 LINE SMOOTH",
"195 559 OFFCURVE",
"183 586 OFFCURVE",
"183 614 CURVE SMOOTH",
"183 635 OFFCURVE",
"196 657 OFFCURVE",
"223 657 CURVE SMOOTH",
"245 657 OFFCURVE",
"261 632 OFFCURVE",
"261 588 CURVE SMOOTH",
"261 568 OFFCURVE",
"258 545 OFFCURVE",
"251 518 CURVE"
);
}
);
width = 605;
}
);
unicode = 16B3A;
},
{
glyphname = u16B3B;
lastChange = "2017-12-01 20:58:02 +0000";
layers = (
{
layerId = UUID0;
paths = (
{
closed = 1;
nodes = (
"508 -11 OFFCURVE",
"615 64 OFFCURVE",
"615 157 CURVE SMOOTH",
"615 215 OFFCURVE",
"561 267 OFFCURVE",
"480 297 CURVE",
"561 327 OFFCURVE",
"615 379 OFFCURVE",
"615 437 CURVE SMOOTH",
"615 531 OFFCURVE",
"508 606 OFFCURVE",
"332 606 CURVE SMOOTH",
"156 606 OFFCURVE",
"50 531 OFFCURVE",
"50 437 CURVE SMOOTH",
"50 379 OFFCURVE",
"103 327 OFFCURVE",
"184 297 CURVE",
"103 267 OFFCURVE",
"50 215 OFFCURVE",
"50 157 CURVE SMOOTH",
"50 64 OFFCURVE",
"156 -11 OFFCURVE",
"332 -11 CURVE SMOOTH"
);
},
{
closed = 1;
nodes = (
"226 57 OFFCURVE",
"140 100 OFFCURVE",
"140 157 CURVE SMOOTH",
"140 218 OFFCURVE",
"226 264 OFFCURVE",
"332 264 CURVE SMOOTH",
"439 264 OFFCURVE",
"525 218 OFFCURVE",
"525 157 CURVE SMOOTH",
"525 100 OFFCURVE",
"439 57 OFFCURVE",
"332 57 CURVE SMOOTH"
);
},
{
closed = 1;
nodes = (
"364 103 OFFCURVE",
"391 129 OFFCURVE",
"391 162 CURVE SMOOTH",
"391 194 OFFCURVE",
"364 221 OFFCURVE",
"332 221 CURVE SMOOTH",
"299 221 OFFCURVE",
"273 194 OFFCURVE",
"273 162 CURVE SMOOTH",
"273 129 OFFCURVE",
"299 103 OFFCURVE",
"332 103 CURVE SMOOTH"
);
},
{
closed = 1;
nodes = (
"226 334 OFFCURVE",
"140 378 OFFCURVE",
"140 437 CURVE SMOOTH",
"140 494 OFFCURVE",
"226 537 OFFCURVE",
"332 537 CURVE SMOOTH",
"439 537 OFFCURVE",
"525 494 OFFCURVE",
"525 437 CURVE SMOOTH",
"525 378 OFFCURVE",
"439 334 OFFCURVE",
"332 334 CURVE SMOOTH"
);
},
{
closed = 1;
nodes = (
"364 383 OFFCURVE",
"391 409 OFFCURVE",
"391 442 CURVE SMOOTH",
"391 474 OFFCURVE",
"364 501 OFFCURVE",
"332 501 CURVE SMOOTH",
"299 501 OFFCURVE",
"273 474 OFFCURVE",
"273 442 CURVE SMOOTH",
"273 409 OFFCURVE",
"299 383 OFFCURVE",
"332 383 CURVE SMOOTH"
);
}
);
width = 665;
}
);
unicode = 16B3B;
},
{
glyphname = u16B3C;
lastChange = "2017-12-01 20:58:02 +0000";
layers = (
{
layerId = UUID0;
paths = (
{
closed = 1;
nodes = (
"542 0 LINE",
"542 604 LINE",
"452 604 LINE",
"452 509 LINE",
"277 509 LINE SMOOTH",
"149 509 OFFCURVE",
"50 432 OFFCURVE",
"50 299 CURVE SMOOTH",
"50 149 OFFCURVE",
"149 90 OFFCURVE",
"287 90 CURVE SMOOTH",
"452 90 LINE",
"452 0 LINE"
);
},
{
closed = 1;
nodes = (
"216 168 OFFCURVE",
"154 192 OFFCURVE",
"138 262 CURVE",
"452 262 LINE",
"452 168 LINE",
"270 168 LINE SMOOTH"
);
},
{
closed = 1;
nodes = (
"155 398 OFFCURVE",
"206 431 OFFCURVE",
"260 431 CURVE SMOOTH",
"452 431 LINE",
"452 340 LINE",
"139 340 LINE"
);
}
);
width = 632;
}
);
rightMetricsKey = u16B2B;
unicode = 16B3C;
},
{
glyphname = u16B3D;
lastChange = "2017-12-01 20:58:02 +0000";
layers = (
{
layerId = UUID0;
paths = (
{
closed = 1;
nodes = (
"395 0 LINE",
"395 604 LINE",
"20 604 LINE",
"20 524 LINE",
"305 524 LINE",
"305 0 LINE"
);
},
{
closed = 1;
nodes = (
"217 214 OFFCURVE",
"250 246 OFFCURVE",
"250 286 CURVE SMOOTH",
"250 326 OFFCURVE",
"217 359 OFFCURVE",
"177 359 CURVE SMOOTH",
"137 359 OFFCURVE",
"105 326 OFFCURVE",
"105 286 CURVE SMOOTH",
"105 246 OFFCURVE",
"137 214 OFFCURVE",
"177 214 CURVE SMOOTH"
);
},
{
closed = 1;
nodes = (
"562 214 OFFCURVE",
"595 246 OFFCURVE",
"595 286 CURVE SMOOTH",
"595 326 OFFCURVE",
"562 359 OFFCURVE",
"522 359 CURVE SMOOTH",
"482 359 OFFCURVE",
"450 326 OFFCURVE",
"450 286 CURVE SMOOTH",
"450 246 OFFCURVE",
"482 214 OFFCURVE",
"522 214 CURVE SMOOTH"
);
}
);
width = 645;
}
);
unicode = 16B3D;
},
{
glyphname = u16B3E;
lastChange = "2017-12-01 20:58:02 +0000";
layers = (
{
layerId = UUID0;
paths = (
{
closed = 1;
nodes = (
"530 0 LINE",
"530 265 LINE",
"275 265 LINE SMOOTH",
"213 265 OFFCURVE",
"139 295 OFFCURVE",
"139 394 CURVE SMOOTH",
"139 478 OFFCURVE",
"200 524 OFFCURVE",
"265 524 CURVE SMOOTH",
"524 524 LINE",
"524 604 LINE",
"277 604 LINE SMOOTH",
"149 604 OFFCURVE",
"50 527 OFFCURVE",
"50 394 CURVE SMOOTH",
"50 244 OFFCURVE",
"149 185 OFFCURVE",
"287 185 CURVE SMOOTH",
"440 185 LINE",
"440 0 LINE"
);
}
);
width = 580;
}
);
unicode = 16B3E;
},
{
glyphname = u16B3F;
lastChange = "2017-12-01 20:58:02 +0000";
layers = (
{
layerId = UUID0;
paths = (
{
closed = 1;
nodes = (
"625 0 LINE",
"625 80 LINE",
"340 80 LINE",
"340 604 LINE",
"250 604 LINE",
"250 0 LINE"
);
},
{
closed = 1;
nodes = (
"163 245 OFFCURVE",
"195 278 OFFCURVE",
"195 318 CURVE SMOOTH",
"195 358 OFFCURVE",
"163 390 OFFCURVE",
"123 390 CURVE SMOOTH",
"83 390 OFFCURVE",
"50 358 OFFCURVE",
"50 318 CURVE SMOOTH",
"50 278 OFFCURVE",
"83 245 OFFCURVE",
"123 245 CURVE SMOOTH"
);
},
{
closed = 1;
nodes = (
"508 245 OFFCURVE",
"540 278 OFFCURVE",
"540 318 CURVE SMOOTH",
"540 358 OFFCURVE",
"508 390 OFFCURVE",
"468 390 CURVE SMOOTH",
"428 390 OFFCURVE",
"395 358 OFFCURVE",
"395 318 CURVE SMOOTH",
"395 278 OFFCURVE",
"428 245 OFFCURVE",
"468 245 CURVE SMOOTH"
);
}
);
width = 645;
}
);
unicode = 16B3F;
},
{
glyphname = u16B40;
lastChange = "2017-12-01 20:58:02 +0000";
layers = (
{
layerId = UUID0;
paths = (
{
closed = 1;
nodes = (
"462 290 OFFCURVE",
"495 322 OFFCURVE",
"495 362 CURVE SMOOTH",
"495 402 OFFCURVE",
"462 435 OFFCURVE",
"422 435 CURVE SMOOTH",
"382 435 OFFCURVE",
"350 402 OFFCURVE",
"350 362 CURVE SMOOTH",
"350 322 OFFCURVE",
"382 290 OFFCURVE",
"422 290 CURVE SMOOTH"
);
},
{
closed = 1;
nodes = (
"162 111 OFFCURVE",
"195 143 OFFCURVE",
"195 183 CURVE SMOOTH",
"195 223 OFFCURVE",
"162 256 OFFCURVE",
"122 256 CURVE SMOOTH",
"82 256 OFFCURVE",
"50 223 OFFCURVE",
"50 183 CURVE SMOOTH",
"50 143 OFFCURVE",
"82 111 OFFCURVE",
"122 111 CURVE SMOOTH"
);
},
{
closed = 1;
nodes = (
"162 469 OFFCURVE",
"195 501 OFFCURVE",
"195 541 CURVE SMOOTH",
"195 581 OFFCURVE",
"162 614 OFFCURVE",
"122 614 CURVE SMOOTH",
"82 614 OFFCURVE",
"50 581 OFFCURVE",
"50 541 CURVE SMOOTH",
"50 501 OFFCURVE",
"82 469 OFFCURVE",
"122 469 CURVE SMOOTH"
);
}
);
width = 545;
}
);
unicode = 16B40;
},
{
glyphname = u16B41;
lastChange = "2017-12-01 20:58:02 +0000";
layers = (
{
layerId = UUID0;
paths = (
{
closed = 1;
nodes = (
"328 0 LINE",
"328 714 LINE",
"219 714 LINE",
"80 539 LINE",
"141 486 LINE",
"238 618 LINE",
"238 0 LINE"
);
}
);
width = 418;
}
);
rightMetricsKey = u16B2B;
unicode = 16B41;
},
{
glyphname = u16B42;
lastChange = "2017-12-01 20:58:02 +0000";
layers = (
{
layerId = UUID0;
paths = (
{
closed = 1;
nodes = (
"565 -60 LINE",
"565 444 LINE",
"335 444 LINE",
"335 714 LINE",
"50 714 LINE",
"50 634 LINE",
"245 634 LINE",
"245 444 LINE",
"50 444 LINE",
"50 364 LINE",
"245 364 LINE",
"245 0 LINE",
"335 0 LINE",
"335 364 LINE",
"475 364 LINE",
"475 -60 LINE"
);
}
);
width = 645;
}
);
unicode = 16B42;
},
{
glyphname = u16B43;
lastChange = "2017-12-01 20:58:02 +0000";
layers = (
{
layerId = UUID0;
paths = (
{
closed = 1;
nodes = (
"389 -11 OFFCURVE",
"447 42 OFFCURVE",
"469 131 CURVE",
"584 144 OFFCURVE",
"628 219 OFFCURVE",
"628 344 CURVE",
"541 344 LINE",
"541 268 OFFCURVE",
"529 227 OFFCURVE",
"479 212 CURVE",
"479 218 OFFCURVE",
"480 225 OFFCURVE",
"480 231 CURVE SMOOTH",
"480 434 LINE",
"651 434 LINE",
"651 514 LINE",
"480 514 LINE",
"480 714 LINE",
"390 714 LINE",
"390 231 LINE SMOOTH",
"390 224 OFFCURVE",
"389 217 OFFCURVE",
"389 210 CURVE",
"328 227 OFFCURVE",
"315 291 OFFCURVE",
"315 366 CURVE SMOOTH",
"315 514 LINE",
"228 514 LINE",
"228 371 LINE SMOOTH",
"228 242 OFFCURVE",
"269 154 OFFCURVE",
"378 134 CURVE",
"364 95 OFFCURVE",
"336 71 OFFCURVE",
"282 71 CURVE SMOOTH",
"187 71 OFFCURVE",
"170 134 OFFCURVE",
"170 232 CURVE SMOOTH",
"170 294 LINE",
"80 294 LINE",
"80 233 LINE SMOOTH",
"80 74 OFFCURVE",
"133 -11 OFFCURVE",
"277 -11 CURVE SMOOTH"
);
}
);
width = 729;
}
);
unicode = 16B43;
},
{
glyphname = u16B44;
lastChange = "2017-12-01 20:58:02 +0000";
layers = (
{
layerId = UUID0;
paths = (
{
closed = 1;
nodes = (
"379 0 LINE",
"379 634 LINE",
"647 634 LINE",
"647 714 LINE",
"20 714 LINE",
"20 634 LINE",
"289 634 LINE",
"289 0 LINE"
);
},
{
closed = 1;
nodes = (
"201 315 OFFCURVE",
"234 347 OFFCURVE",
"234 387 CURVE SMOOTH",
"234 427 OFFCURVE",
"201 460 OFFCURVE",
"161 460 CURVE SMOOTH",
"121 460 OFFCURVE",
"89 427 OFFCURVE",
"89 387 CURVE SMOOTH",
"89 347 OFFCURVE",
"121 315 OFFCURVE",
"161 315 CURVE SMOOTH"
);
},
{
closed = 1;
nodes = (
"546 315 OFFCURVE",
"579 347 OFFCURVE",
"579 387 CURVE SMOOTH",
"579 427 OFFCURVE",
"546 460 OFFCURVE",
"506 460 CURVE SMOOTH",
"466 460 OFFCURVE",
"434 427 OFFCURVE",
"434 387 CURVE SMOOTH",
"434 347 OFFCURVE",
"466 315 OFFCURVE",
"506 315 CURVE SMOOTH"
);
}
);
width = 667;
}
);
unicode = 16B44;
},
{
glyphname = u16B45;
lastChange = "2017-12-01 20:58:02 +0000";
layers = (
{
layerId = UUID0;
paths = (
{
closed = 1;
nodes = (
"323 -213 LINE",
"523 -4 LINE",
"523 115 LINE",
"356 -71 LINE",
"356 164 LINE SMOOTH",
"356 218 OFFCURVE",
"379 238 OFFCURVE",
"436 238 CURVE SMOOTH",
"500 238 LINE SMOOTH",
"604 238 OFFCURVE",
"657 307 OFFCURVE",
"657 397 CURVE SMOOTH",
"657 696 LINE SMOOTH",
"657 786 OFFCURVE",
"596 855 OFFCURVE",
"468 855 CURVE SMOOTH",
"285 855 LINE SMOOTH",
"147 855 OFFCURVE",
"80 796 OFFCURVE",
"80 696 CURVE SMOOTH",
"80 527 LINE SMOOTH",
"80 443 OFFCURVE",
"117 370 OFFCURVE",
"245 370 CURVE SMOOTH",
"363 370 LINE SMOOTH",
"455 370 OFFCURVE",
"501 427 OFFCURVE",
"501 517 CURVE SMOOTH",
"501 597 LINE SMOOTH",
"501 656 OFFCURVE",
"483 708 OFFCURVE",
"391 708 CURVE SMOOTH",
"347 708 LINE SMOOTH",
"255 708 OFFCURVE",
"234 656 OFFCURVE",
"234 597 CURVE SMOOTH",
"234 546 LINE",
"320 546 LINE",
"320 597 LINE SMOOTH",
"320 620 OFFCURVE",
"331 632 OFFCURVE",
"360 632 CURVE SMOOTH",
"378 632 LINE SMOOTH",
"407 632 OFFCURVE",
"418 620 OFFCURVE",
"418 597 CURVE SMOOTH",
"418 532 LINE SMOOTH",
"418 478 OFFCURVE",
"407 450 OFFCURVE",
"350 450 CURVE SMOOTH",
"245 450 LINE SMOOTH",
"180 450 OFFCURVE",
"170 492 OFFCURVE",
"170 542 CURVE SMOOTH",
"170 691 LINE SMOOTH",
"170 755 OFFCURVE",
"223 775 OFFCURVE",
"285 775 CURVE SMOOTH",
"459 775 LINE SMOOTH",
"518 775 OFFCURVE",
"567 745 OFFCURVE",
"567 691 CURVE SMOOTH",
"567 412 LINE SMOOTH",
"567 358 OFFCURVE",
"555 318 OFFCURVE",
"487 318 CURVE SMOOTH",
"423 318 LINE SMOOTH",
"319 318 OFFCURVE",
"266 269 OFFCURVE",
"266 179 CURVE SMOOTH",
"266 -71 LINE",
"99 115 LINE",
"99 -4 LINE",
"299 -213 LINE"
);
}
);
width = 737;
}
);
unicode = 16B45;
},
{
glyphname = u16B50;
lastChange = "2017-12-01 20:58:02 +0000";
layers = (
{
layerId = UUID0;
paths = (
{
closed = 1;
nodes = (
"180 0 LINE",
"180 714 LINE",
"90 714 LINE",
"90 0 LINE"
);
}
);
width = 270;
}
);
leftMetricsKey = u16B2B;
rightMetricsKey = u16B2B;
unicode = 16B50;
},
{
glyphname = u16B51;
lastChange = "2017-12-01 20:58:02 +0000";
layers = (
{
layerId = UUID0;
paths = (
{
closed = 1;
nodes = (
"549 0 LINE",
"549 714 LINE",
"459 714 LINE",
"459 456 LINE",
"446 379 OFFCURVE",
"333 282 OFFCURVE",
"232 282 CURVE SMOOTH",
"162 282 OFFCURVE",
"150 323 OFFCURVE",
"150 411 CURVE SMOOTH",
"150 714 LINE",
"60 714 LINE",
"60 414 LINE SMOOTH",
"60 281 OFFCURVE",
"94 200 OFFCURVE",
"221 200 CURVE SMOOTH",
"328 200 OFFCURVE",
"410 261 OFFCURVE",
"459 316 CURVE",
"459 0 LINE"
);
}
);
width = 639;
}
);
rightMetricsKey = u16B2B;
unicode = 16B51;
},
{
glyphname = u16B61;
lastChange = "2017-12-01 20:58:02 +0000";
layers = (
{
layerId = UUID0;
paths = (
{
closed = 1;
nodes = (
"500 0 LINE",
"500 354 LINE",
"641 354 LINE",
"641 434 LINE",
"500 434 LINE",
"500 634 LINE",
"641 634 LINE",
"641 714 LINE",
"410 714 LINE",
"410 0 LINE"
);
},
{
closed = 1;
nodes = (
"180 0 LINE",
"180 714 LINE",
"90 714 LINE",
"90 0 LINE"
);
},
{
closed = 1;
nodes = (
"330 0 LINE",
"330 714 LINE",
"260 714 LINE",
"260 0 LINE"
);
}
);
width = 721;
}
);
leftMetricsKey = u16B2B;
unicode = 16B61;
},
{
glyphname = u16B52;
lastChange = "2017-12-01 20:58:02 +0000";
layers = (
{
layerId = UUID0;
paths = (
{
closed = 1;
nodes = (
"424 0 LINE SMOOTH",
"528 0 OFFCURVE",
"581 49 OFFCURVE",
"581 139 CURVE SMOOTH",
"581 220 LINE SMOOTH",
"581 291 OFFCURVE",
"534 329 OFFCURVE",
"470 329 CURVE SMOOTH",
"294 329 LINE SMOOTH",
"243 329 OFFCURVE",
"241 340 OFFCURVE",
"241 361 CURVE SMOOTH",
"241 387 OFFCURVE",
"251 390 OFFCURVE",
"302 390 CURVE SMOOTH",
"470 390 LINE SMOOTH",
"534 390 OFFCURVE",
"581 428 OFFCURVE",
"581 499 CURVE SMOOTH",
"581 575 LINE SMOOTH",
"581 665 OFFCURVE",
"528 714 OFFCURVE",
"424 714 CURVE SMOOTH",
"207 714 LINE SMOOTH",
"103 714 OFFCURVE",
"50 645 OFFCURVE",
"50 555 CURVE SMOOTH",
"50 520 LINE",
"140 520 LINE",
"140 540 LINE SMOOTH",
"140 594 OFFCURVE",
"163 634 OFFCURVE",
"220 634 CURVE SMOOTH",
"411 634 LINE SMOOTH",
"468 634 OFFCURVE",
"491 614 OFFCURVE",
"491 574 CURVE SMOOTH",
"491 511 LINE SMOOTH",
"491 483 OFFCURVE",
"468 464 OFFCURVE",
"439 464 CURVE SMOOTH",
"264 464 LINE SMOOTH",
"205 464 OFFCURVE",
"167 456 OFFCURVE",
"167 361 CURVE SMOOTH",
"167 264 OFFCURVE",
"221 255 OFFCURVE",
"252 255 CURVE SMOOTH",
"439 255 LINE SMOOTH",
"468 255 OFFCURVE",
"491 236 OFFCURVE",
"491 208 CURVE SMOOTH",
"491 140 LINE SMOOTH",
"491 100 OFFCURVE",
"468 80 OFFCURVE",
"411 80 CURVE SMOOTH",
"220 80 LINE SMOOTH",
"163 80 OFFCURVE",
"140 120 OFFCURVE",
"140 174 CURVE SMOOTH",
"140 194 LINE",
"50 194 LINE",
"50 159 LINE SMOOTH",
"50 69 OFFCURVE",
"103 0 OFFCURVE",
"207 0 CURVE SMOOTH"
);
}
);
width = 661;
}
);
unicode = 16B52;
},
{
glyphname = u16B53;
lastChange = "2017-12-01 20:58:02 +0000";
layers = (
{
layerId = UUID0;
paths = (
{
closed = 1;
nodes = (
"170 0 LINE",
"170 521 LINE SMOOTH",
"170 629 OFFCURVE",
"200 643 OFFCURVE",
"227 643 CURVE SMOOTH",
"261 643 OFFCURVE",
"284 615 OFFCURVE",
"284 531 CURVE SMOOTH",
"284 506 OFFCURVE",
"284 476 OFFCURVE",
"281 440 CURVE SMOOTH",
"254 92 LINE",
"254 34 LINE",
"542 34 LINE",
"542 92 LINE",
"515 440 LINE SMOOTH",
"512 476 OFFCURVE",
"512 506 OFFCURVE",
"512 531 CURVE SMOOTH",
"512 615 OFFCURVE",
"535 643 OFFCURVE",
"569 643 CURVE SMOOTH",
"596 643 OFFCURVE",
"626 629 OFFCURVE",
"626 521 CURVE SMOOTH",
"626 0 LINE",
"716 0 LINE",
"716 521 LINE SMOOTH",
"716 657 OFFCURVE",
"660 725 OFFCURVE",
"570 725 CURVE SMOOTH",
"479 725 OFFCURVE",
"430 653 OFFCURVE",
"430 531 CURVE SMOOTH",
"430 498 OFFCURVE",
"430 473 OFFCURVE",
"432 445 CURVE SMOOTH",
"457 92 LINE",
"339 92 LINE",
"364 445 LINE SMOOTH",
"366 473 OFFCURVE",
"366 498 OFFCURVE",
"366 531 CURVE SMOOTH",
"366 653 OFFCURVE",
"317 725 OFFCURVE",
"226 725 CURVE SMOOTH",
"136 725 OFFCURVE",
"80 657 OFFCURVE",
"80 521 CURVE SMOOTH",
"80 0 LINE"
);
}
);
width = 796;
}
);
unicode = 16B53;
},
{
glyphname = u16B54;
lastChange = "2017-12-01 20:58:02 +0000";
layers = (
{
layerId = UUID0;
paths = (
{
closed = 1;
nodes = (
"363 0 LINE SMOOTH",
"491 0 OFFCURVE",
"552 69 OFFCURVE",
"552 159 CURVE SMOOTH",
"552 349 LINE",
"653 349 LINE",
"653 429 LINE",
"552 429 LINE",
"552 714 LINE",
"70 714 LINE",
"70 634 LINE",
"462 634 LINE",
"462 429 LINE",
"275 429 LINE SMOOTH",
"147 429 OFFCURVE",
"80 352 OFFCURVE",
"80 268 CURVE SMOOTH",
"80 159 LINE SMOOTH",
"80 59 OFFCURVE",
"147 0 OFFCURVE",
"285 0 CURVE SMOOTH"
);
},
{
closed = 1;
nodes = (
"223 80 OFFCURVE",
"170 110 OFFCURVE",
"170 174 CURVE SMOOTH",
"170 253 LINE SMOOTH",
"170 303 OFFCURVE",
"210 349 OFFCURVE",
"275 349 CURVE SMOOTH",
"462 349 LINE",
"462 174 LINE SMOOTH",
"462 120 OFFCURVE",
"413 80 OFFCURVE",
"354 80 CURVE SMOOTH",
"285 80 LINE SMOOTH"
);
}
);
width = 673;
}
);
unicode = 16B54;
},
{
glyphname = u16B55;
lastChange = "2017-12-01 20:58:02 +0000";
layers = (
{
layerId = UUID0;
paths = (
{
closed = 1;
nodes = (
"424 0 LINE SMOOTH",
"528 0 OFFCURVE",
"581 69 OFFCURVE",
"581 159 CURVE SMOOTH",
"581 250 LINE SMOOTH",
"581 298 OFFCURVE",
"560 340 OFFCURVE",
"528 369 CURVE",
"560 398 OFFCURVE",
"581 440 OFFCURVE",
"581 488 CURVE SMOOTH",
"581 555 LINE SMOOTH",
"581 645 OFFCURVE",
"528 714 OFFCURVE",
"424 714 CURVE SMOOTH",
"207 714 LINE SMOOTH",
"103 714 OFFCURVE",
"50 645 OFFCURVE",
"50 555 CURVE SMOOTH",
"50 520 LINE",
"140 520 LINE",
"140 540 LINE SMOOTH",
"140 594 OFFCURVE",
"163 634 OFFCURVE",
"220 634 CURVE SMOOTH",
"411 634 LINE SMOOTH",
"468 634 OFFCURVE",
"491 594 OFFCURVE",
"491 540 CURVE SMOOTH",
"491 503 LINE SMOOTH",
"491 450 OFFCURVE",
"469 409 OFFCURVE",
"415 409 CURVE SMOOTH",
"350 409 LINE",
"350 470 LINE",
"270 470 LINE",
"270 254 LINE",
"350 254 LINE",
"350 329 LINE",
"411 329 LINE SMOOTH",
"468 329 OFFCURVE",
"491 289 OFFCURVE",
"491 235 CURVE SMOOTH",
"491 174 LINE SMOOTH",
"491 120 OFFCURVE",
"468 80 OFFCURVE",
"411 80 CURVE SMOOTH",
"220 80 LINE SMOOTH",
"163 80 OFFCURVE",
"140 120 OFFCURVE",
"140 174 CURVE SMOOTH",
"140 194 LINE",
"50 194 LINE",
"50 159 LINE SMOOTH",
"50 69 OFFCURVE",
"103 0 OFFCURVE",
"207 0 CURVE SMOOTH"
);
}
);
width = 661;
}
);
unicode = 16B55;
},
{
glyphname = u16B56;
lastChange = "2017-12-01 20:58:02 +0000";
layers = (
{
layerId = UUID0;
paths = (
{
closed = 1;
nodes = (
"394 0 LINE SMOOTH",
"498 0 OFFCURVE",
"551 69 OFFCURVE",
"551 159 CURVE SMOOTH",
"551 215 LINE",
"461 215 LINE",
"461 174 LINE SMOOTH",
"461 120 OFFCURVE",
"438 80 OFFCURVE",
"381 80 CURVE SMOOTH",
"250 80 LINE SMOOTH",
"193 80 OFFCURVE",
"170 120 OFFCURVE",
"170 174 CURVE SMOOTH",
"170 540 LINE SMOOTH",
"170 594 OFFCURVE",
"193 634 OFFCURVE",
"250 634 CURVE SMOOTH",
"355 634 LINE SMOOTH",
"407 634 OFFCURVE",
"461 594 OFFCURVE",
"461 540 CURVE SMOOTH",
"461 480 LINE",
"551 480 LINE",
"551 742 LINE",
"471 742 LINE",
"471 682 LINE",
"442 702 OFFCURVE",
"406 714 OFFCURVE",
"365 714 CURVE SMOOTH",
"237 714 LINE SMOOTH",
"133 714 OFFCURVE",
"80 645 OFFCURVE",
"80 555 CURVE SMOOTH",
"80 159 LINE SMOOTH",
"80 69 OFFCURVE",
"133 0 OFFCURVE",
"237 0 CURVE SMOOTH"
);
}
);
width = 601;
}
);
unicode = 16B56;
},
{
glyphname = u16B57;
lastChange = "2017-12-01 20:58:02 +0000";
layers = (
{
layerId = UUID0;
paths = (
{
closed = 1;
nodes = (
"180 0 LINE",
"180 313 LINE",
"215 313 LINE SMOOTH",
"257 313 OFFCURVE",
"286 286 OFFCURVE",
"309 258 CURVE SMOOTH",
"518 0 LINE",
"629 0 LINE",
"362 321 LINE SMOOTH",
"354 330 OFFCURVE",
"344 340 OFFCURVE",
"332 350 CURVE",
"452 398 OFFCURVE",
"561 487 OFFCURVE",
"561 593 CURVE SMOOTH",
"561 672 OFFCURVE",
"503 725 OFFCURVE",
"435 725 CURVE SMOOTH",
"367 725 OFFCURVE",
"308 672 OFFCURVE",
"308 603 CURVE SMOOTH",
"308 546 OFFCURVE",
"350 498 OFFCURVE",
"407 483 CURVE",
"353 424 OFFCURVE",
"273 395 OFFCURVE",
"180 393 CURVE",
"180 714 LINE",
"90 714 LINE",
"90 0 LINE"
);
},
{
closed = 1;
nodes = (
"405 550 OFFCURVE",
"382 572 OFFCURVE",
"382 603 CURVE SMOOTH",
"382 635 OFFCURVE",
"405 655 OFFCURVE",
"435 655 CURVE SMOOTH",
"465 655 OFFCURVE",
"487 634 OFFCURVE",
"487 603 CURVE SMOOTH",
"487 572 OFFCURVE",
"465 550 OFFCURVE",
"435 550 CURVE SMOOTH"
);
}
);
width = 649;
}
);
leftMetricsKey = u16B2B;
unicode = 16B57;
},
{
glyphname = u16B58;
lastChange = "2017-12-01 20:58:02 +0000";
layers = (
{
layerId = UUID0;
paths = (
{
closed = 1;
nodes = (
"513 -11 OFFCURVE",
"571 42 OFFCURVE",
"571 121 CURVE SMOOTH",
"571 239 OFFCURVE",
"434 337 OFFCURVE",
"299 379 CURVE",
"304 383 OFFCURVE",
"308 388 OFFCURVE",
"312 393 CURVE SMOOTH",
"579 714 LINE",
"468 714 LINE",
"259 456 LINE SMOOTH",
"239 431 OFFCURVE",
"214 407 OFFCURVE",
"180 402 CURVE",
"180 714 LINE",
"90 714 LINE",
"90 0 LINE",
"180 0 LINE",
"180 321 LINE",
"277 320 OFFCURVE",
"361 292 OFFCURVE",
"417 231 CURVE",
"360 216 OFFCURVE",
"318 168 OFFCURVE",
"318 111 CURVE SMOOTH",
"318 42 OFFCURVE",
"377 -11 OFFCURVE",
"445 -11 CURVE SMOOTH"
);
},
{
closed = 1;
nodes = (
"415 59 OFFCURVE",
"392 79 OFFCURVE",
"392 111 CURVE SMOOTH",
"392 142 OFFCURVE",
"415 164 OFFCURVE",
"445 164 CURVE SMOOTH",
"475 164 OFFCURVE",
"497 142 OFFCURVE",
"497 111 CURVE SMOOTH",
"497 80 OFFCURVE",
"475 59 OFFCURVE",
"445 59 CURVE SMOOTH"
);
}
);
width = 599;
}
);
leftMetricsKey = u16B2B;
unicode = 16B58;
},
{
glyphname = u16B59;
lastChange = "2017-12-01 20:58:02 +0000";
layers = (
{
layerId = UUID0;
paths = (
{
closed = 1;
nodes = (
"180 0 LINE",
"180 323 LINE",
"215 323 LINE SMOOTH",
"257 323 OFFCURVE",
"279 304 OFFCURVE",
"309 268 CURVE SMOOTH",
"532 0 LINE",
"634 0 LINE",
"354 331 LINE SMOOTH",
"345 342 OFFCURVE",
"332 352 OFFCURVE",
"319 363 CURVE",
"332 374 OFFCURVE",
"345 384 OFFCURVE",
"354 395 CURVE SMOOTH",
"622 714 LINE",
"520 714 LINE",
"309 458 LINE SMOOTH",
"279 422 OFFCURVE",
"257 403 OFFCURVE",
"215 403 CURVE SMOOTH",
"180 403 LINE",
"180 714 LINE",
"90 714 LINE",
"90 0 LINE"
);
}
);
width = 654;
}
);
leftMetricsKey = u16B2B;
unicode = 16B59;
},
{
glyphname = u16B5B;
lastChange = "2017-12-01 20:58:02 +0000";
layers = (
{
layerId = UUID0;
paths = (
{
closed = 1;
nodes = (
"337 -11 OFFCURVE",
"375 64 OFFCURVE",
"375 223 CURVE SMOOTH",
"375 344 LINE",
"450 344 LINE",
"450 223 LINE SMOOTH",
"450 64 OFFCURVE",
"488 -11 OFFCURVE",
"592 -11 CURVE SMOOTH",
"720 -11 OFFCURVE",
"745 73 OFFCURVE",
"745 221 CURVE SMOOTH",
"745 714 LINE",
"655 714 LINE",
"655 221 LINE SMOOTH",
"655 133 OFFCURVE",
"648 71 OFFCURVE",
"592 71 CURVE SMOOTH",
"537 71 OFFCURVE",
"530 124 OFFCURVE",
"530 222 CURVE SMOOTH",
"530 471 LINE SMOOTH",
"530 557 OFFCURVE",
"513 650 OFFCURVE",
"412 650 CURVE SMOOTH",
"311 650 OFFCURVE",
"295 557 OFFCURVE",
"295 471 CURVE SMOOTH",
"295 222 LINE SMOOTH",
"295 124 OFFCURVE",
"288 71 OFFCURVE",
"233 71 CURVE SMOOTH",
"177 71 OFFCURVE",
"170 133 OFFCURVE",
"170 221 CURVE SMOOTH",
"170 714 LINE",
"80 714 LINE",
"80 221 LINE SMOOTH",
"80 73 OFFCURVE",
"105 -11 OFFCURVE",
"233 -11 CURVE SMOOTH"
);
},
{
closed = 1;
nodes = (
"375 471 LINE SMOOTH",
"375 554 OFFCURVE",
"390 576 OFFCURVE",
"413 576 CURVE SMOOTH",
"435 576 OFFCURVE",
"450 553 OFFCURVE",
"450 471 CURVE SMOOTH",
"450 412 LINE",
"375 412 LINE"
);
}
);
width = 825;
}
);
unicode = 16B5B;
},
{
glyphname = u16B5C;
lastChange = "2017-12-01 20:58:02 +0000";
layers = (
{
layerId = UUID0;
paths = (
{
closed = 1;
nodes = (
"275 -10 OFFCURVE",
"295 80 OFFCURVE",
"295 155 CURVE SMOOTH",
"295 251 LINE",
"502 377 LINE",
"502 0 LINE",
"592 0 LINE",
"592 431 LINE",
"656 469 LINE SMOOTH",
"736 516 OFFCURVE",
"757 560 OFFCURVE",
"757 612 CURVE SMOOTH",
"757 687 OFFCURVE",
"707 725 OFFCURVE",
"645 725 CURVE SMOOTH",
"522 725 OFFCURVE",
"502 635 OFFCURVE",
"502 560 CURVE SMOOTH",
"502 463 LINE",
"295 337 LINE",
"295 715 LINE",
"205 715 LINE",
"205 284 LINE",
"141 246 LINE SMOOTH",
"61 199 OFFCURVE",
"40 155 OFFCURVE",
"40 103 CURVE SMOOTH",
"40 28 OFFCURVE",
"90 -10 OFFCURVE",
"152 -10 CURVE SMOOTH"
);
},
{
closed = 1;
nodes = (
"125 58 OFFCURVE",
"112 82 OFFCURVE",
"112 103 CURVE SMOOTH",
"112 131 OFFCURVE",
"120 146 OFFCURVE",
"172 177 CURVE SMOOTH",
"205 197 LINE",
"205 125 LINE SMOOTH",
"205 86 OFFCURVE",
"186 58 OFFCURVE",
"152 58 CURVE SMOOTH"
);
},
{
closed = 1;
nodes = (
"592 590 LINE SMOOTH",
"592 629 OFFCURVE",
"611 657 OFFCURVE",
"645 657 CURVE SMOOTH",
"672 657 OFFCURVE",
"685 633 OFFCURVE",
"685 612 CURVE SMOOTH",
"685 584 OFFCURVE",
"677 569 OFFCURVE",
"625 538 CURVE SMOOTH",
"592 518 LINE"
);
}
);
width = 797;
}
);
leftKerningGroup = u16B29;
rightKerningGroup = u16B1F;
unicode = 16B5C;
},
{
glyphname = u16B5D;
lastChange = "2017-12-01 20:58:02 +0000";
layers = (
{
layerId = UUID0;
paths = (
{
closed = 1;
nodes = (
"189 0 LINE SMOOTH",
"283 0 OFFCURVE",
"321 69 OFFCURVE",
"321 159 CURVE SMOOTH",
"321 322 LINE",
"420 322 LINE",
"420 159 LINE SMOOTH",
"420 69 OFFCURVE",
"458 0 OFFCURVE",
"552 0 CURVE SMOOTH",
"570 0 LINE SMOOTH",
"653 0 OFFCURVE",
"701 69 OFFCURVE",
"701 159 CURVE SMOOTH",
"701 215 LINE",
"615 215 LINE",
"615 174 LINE SMOOTH",
"615 120 OFFCURVE",
"609 80 OFFCURVE",
"562 80 CURVE SMOOTH",
"553 80 LINE SMOOTH",
"511 80 OFFCURVE",
"510 120 OFFCURVE",
"510 174 CURVE SMOOTH",
"510 540 LINE SMOOTH",
"510 594 OFFCURVE",
"511 634 OFFCURVE",
"553 634 CURVE SMOOTH",
"562 634 LINE SMOOTH",
"602 634 OFFCURVE",
"615 594 OFFCURVE",
"615 540 CURVE SMOOTH",
"615 500 LINE",
"701 500 LINE",
"701 555 LINE SMOOTH",
"701 645 OFFCURVE",
"658 714 OFFCURVE",
"570 714 CURVE SMOOTH",
"552 714 LINE SMOOTH",
"457 714 OFFCURVE",
"420 645 OFFCURVE",
"420 555 CURVE SMOOTH",
"420 402 LINE",
"321 402 LINE",
"321 555 LINE SMOOTH",
"321 645 OFFCURVE",
"284 714 OFFCURVE",
"189 714 CURVE SMOOTH",
"171 714 LINE SMOOTH",
"83 714 OFFCURVE",
"40 645 OFFCURVE",
"40 555 CURVE SMOOTH",
"40 500 LINE",
"126 500 LINE",
"126 540 LINE SMOOTH",
"126 594 OFFCURVE",
"139 634 OFFCURVE",
"179 634 CURVE SMOOTH",
"188 634 LINE SMOOTH",
"230 634 OFFCURVE",
"231 594 OFFCURVE",
"231 540 CURVE SMOOTH",
"231 174 LINE SMOOTH",
"231 120 OFFCURVE",
"230 80 OFFCURVE",
"188 80 CURVE SMOOTH",
"179 80 LINE SMOOTH",
"132 80 OFFCURVE",
"126 120 OFFCURVE",
"126 174 CURVE SMOOTH",
"126 215 LINE",
"40 215 LINE",
"40 159 LINE SMOOTH",
"40 69 OFFCURVE",
"88 0 OFFCURVE",
"171 0 CURVE SMOOTH"
);
}
);
width = 741;
}
);
unicode = 16B5D;
},
{
glyphname = u16B5E;
lastChange = "2017-12-01 20:58:02 +0000";
layers = (
{
layerId = UUID0;
paths = (
{
closed = 1;
nodes = (
"189 0 LINE SMOOTH",
"283 0 OFFCURVE",
"321 69 OFFCURVE",
"321 159 CURVE SMOOTH",
"321 174 LINE",
"420 174 LINE",
"420 159 LINE SMOOTH",
"420 69 OFFCURVE",
"468 0 OFFCURVE",
"551 0 CURVE SMOOTH",
"569 0 LINE SMOOTH",
"663 0 OFFCURVE",
"701 69 OFFCURVE",
"701 159 CURVE SMOOTH",
"701 714 LINE",
"611 714 LINE",
"611 174 LINE SMOOTH",
"611 120 OFFCURVE",
"610 80 OFFCURVE",
"568 80 CURVE SMOOTH",
"559 80 LINE SMOOTH",
"512 80 OFFCURVE",
"506 120 OFFCURVE",
"506 174 CURVE SMOOTH",
"506 254 LINE",
"321 254 LINE",
"321 555 LINE SMOOTH",
"321 645 OFFCURVE",
"284 714 OFFCURVE",
"189 714 CURVE SMOOTH",
"171 714 LINE SMOOTH",
"83 714 OFFCURVE",
"40 645 OFFCURVE",
"40 555 CURVE SMOOTH",
"40 500 LINE",
"126 500 LINE",
"126 540 LINE SMOOTH",
"126 594 OFFCURVE",
"139 634 OFFCURVE",
"179 634 CURVE SMOOTH",
"188 634 LINE SMOOTH",
"230 634 OFFCURVE",
"231 594 OFFCURVE",
"231 540 CURVE SMOOTH",
"231 174 LINE SMOOTH",
"231 120 OFFCURVE",
"230 80 OFFCURVE",
"188 80 CURVE SMOOTH",
"179 80 LINE SMOOTH",
"132 80 OFFCURVE",
"126 120 OFFCURVE",
"126 174 CURVE SMOOTH",
"126 215 LINE",
"40 215 LINE",
"40 159 LINE SMOOTH",
"40 69 OFFCURVE",
"88 0 OFFCURVE",
"171 0 CURVE SMOOTH"
);
}
);
width = 781;
}
);
unicode = 16B5E;
},
{
glyphname = u16B5F;
lastChange = "2017-12-01 20:58:02 +0000";
layers = (
{
layerId = UUID0;
paths = (
{
closed = 1;
nodes = (
"422 -3 LINE",
"593 511 LINE",
"673 437 LINE",
"724 494 LINE",
"476 725 LINE",
"419 674 LINE",
"525 574 LINE",
"404 197 LINE SMOOTH",
"396 173 OFFCURVE",
"383 128 OFFCURVE",
"373 87 CURVE",
"366 112 OFFCURVE",
"344 181 OFFCURVE",
"339 197 CURVE SMOOTH",
"220 576 LINE",
"325 674 LINE",
"268 725 LINE",
"20 494 LINE",
"71 437 LINE",
"151 511 LINE",
"321 -3 LINE"
);
}
);
width = 744;
}
);
leftKerningGroup = u16B2F;
rightKerningGroup = u16B2F;
unicode = 16B5F;
},
{
glyphname = u16B60;
lastChange = "2017-12-01 20:58:02 +0000";
layers = (
{
layerId = UUID0;
paths = (
{
closed = 1;
nodes = (
"170 0 LINE",
"170 80 LINE",
"470 521 LINE",
"470 0 LINE",
"560 0 LINE",
"560 714 LINE",
"470 714 LINE",
"470 645 LINE",
"170 201 LINE",
"170 491 LINE",
"186 484 OFFCURVE",
"203 480 OFFCURVE",
"222 480 CURVE SMOOTH",
"290 480 OFFCURVE",
"349 534 OFFCURVE",
"349 603 CURVE SMOOTH",
"349 672 OFFCURVE",
"290 725 OFFCURVE",
"222 725 CURVE SMOOTH",
"105 725 OFFCURVE",
"80 620 OFFCURVE",
"80 564 CURVE SMOOTH",
"80 0 LINE"
);
},
{
closed = 1;
nodes = (
"192 550 OFFCURVE",
"170 572 OFFCURVE",
"170 603 CURVE SMOOTH",
"170 634 OFFCURVE",
"192 655 OFFCURVE",
"222 655 CURVE SMOOTH",
"252 655 OFFCURVE",
"275 635 OFFCURVE",
"275 603 CURVE SMOOTH",
"275 572 OFFCURVE",
"252 550 OFFCURVE",
"222 550 CURVE SMOOTH"
);
}
);
width = 640;
}
);
unicode = 16B60;
},
{
glyphname = u16B63;
lastChange = "2017-12-01 20:58:02 +0000";
layers = (
{
layerId = UUID0;
paths = (
{
closed = 1;
nodes = (
"586 0 LINE",
"586 80 LINE",
"306 80 LINE",
"306 483 LINE SMOOTH",
"306 571 OFFCURVE",
"306 643 OFFCURVE",
"399 643 CURVE SMOOTH",
"494 643 OFFCURVE",
"496 580 OFFCURVE",
"496 482 CURVE SMOOTH",
"496 459 LINE",
"586 459 LINE",
"586 481 LINE SMOOTH",
"586 640 OFFCURVE",
"557 725 OFFCURVE",
"404 725 CURVE SMOOTH",
"285 725 OFFCURVE",
"239 673 OFFCURVE",
"223 584 CURVE",
"87 714 LINE",
"30 656 LINE",
"216 477 LINE",
"216 80 LINE",
"50 80 LINE",
"50 0 LINE"
);
}
);
width = 636;
}
);
unicode = 16B63;
},
{
glyphname = u16B64;
lastChange = "2017-12-01 20:58:02 +0000";
layers = (
{
layerId = UUID0;
paths = (
{
closed = 1;
nodes = (
"180 0 LINE",
"180 152 LINE",
"207 149 OFFCURVE",
"239 148 OFFCURVE",
"269 148 CURVE SMOOTH",
"446 148 OFFCURVE",
"539 241 OFFCURVE",
"539 341 CURVE SMOOTH",
"539 442 OFFCURVE",
"446 533 OFFCURVE",
"269 533 CURVE SMOOTH",
"238 533 OFFCURVE",
"207 530 OFFCURVE",
"180 523 CURVE",
"180 634 LINE",
"444 634 LINE",
"444 714 LINE",
"90 714 LINE",
"90 444 LINE",
"180 444 LINE",
"192 450 OFFCURVE",
"236 454 OFFCURVE",
"264 454 CURVE SMOOTH",
"377 454 OFFCURVE",
"450 412 OFFCURVE",
"450 340 CURVE SMOOTH",
"450 270 OFFCURVE",
"372 227 OFFCURVE",
"260 227 CURVE SMOOTH",
"212 227 OFFCURVE",
"193 233 OFFCURVE",
"180 237 CURVE",
"90 237 LINE",
"90 0 LINE"
);
}
);
width = 589;
}
);
leftMetricsKey = u16B2B;
unicode = 16B64;
},
{
glyphname = u16B65;
lastChange = "2017-12-01 20:58:02 +0000";
layers = (
{
layerId = UUID0;
paths = (
{
closed = 1;
nodes = (
"248 0 LINE",
"287 150 LINE",
"326 0 LINE",
"422 0 LINE",
"554 600 LINE",
"468 600 LINE",
"371 90 LINE",
"324 295 LINE",
"404 600 LINE",
"318 600 LINE",
"287 447 LINE",
"256 600 LINE",
"170 600 LINE",
"249 295 LINE",
"203 90 LINE",
"106 600 LINE",
"20 600 LINE",
"152 0 LINE"
);
},
{
closed = 1;
nodes = (
"329 680 OFFCURVE",
"365 714 OFFCURVE",
"365 758 CURVE SMOOTH",
"365 801 OFFCURVE",
"329 837 OFFCURVE",
"286 837 CURVE SMOOTH",
"242 837 OFFCURVE",
"208 801 OFFCURVE",
"208 758 CURVE SMOOTH",
"208 714 OFFCURVE",
"242 680 OFFCURVE",
"286 680 CURVE SMOOTH"
);
}
);
width = 574;
}
);
unicode = 16B65;
},
{
glyphname = u16B66;
lastChange = "2017-12-01 20:58:02 +0000";
layers = (
{
layerId = UUID0;
paths = (
{
closed = 1;
nodes = (
"170 303 LINE SMOOTH",
"170 411 OFFCURVE",
"214 463 OFFCURVE",
"343 463 CURVE SMOOTH",
"468 463 OFFCURVE",
"520 420 OFFCURVE",
"520 304 CURVE SMOOTH",
"520 0 LINE",
"610 0 LINE",
"610 309 LINE SMOOTH",
"610 453 OFFCURVE",
"541 529 OFFCURVE",
"396 542 CURVE",
"396 634 LINE",
"630 634 LINE",
"630 714 LINE",
"60 714 LINE",
"60 634 LINE",
"306 634 LINE",
"306 543 LINE",
"147 531 OFFCURVE",
"80 447 OFFCURVE",
"80 311 CURVE SMOOTH",
"80 0 LINE",
"170 0 LINE"
);
}
);
width = 690;
}
);
unicode = 16B66;
},
{
glyphname = u16B67;
lastChange = "2017-12-01 20:58:02 +0000";
layers = (
{
layerId = UUID0;
paths = (
{
closed = 1;
nodes = (
"681 -11 OFFCURVE",
"700 103 OFFCURVE",
"700 251 CURVE SMOOTH",
"700 463 LINE SMOOTH",
"700 611 OFFCURVE",
"681 725 OFFCURVE",
"512 725 CURVE SMOOTH",
"354 725 OFFCURVE",
"330 620 OFFCURVE",
"330 461 CURVE SMOOTH",
"330 402 LINE",
"180 402 LINE",
"180 714 LINE",
"90 714 LINE",
"90 0 LINE",
"180 0 LINE",
"180 322 LINE",
"330 322 LINE",
"330 253 LINE SMOOTH",
"330 94 OFFCURVE",
"354 -11 OFFCURVE",
"512 -11 CURVE SMOOTH"
);
},
{
closed = 1;
nodes = (
"432 71 OFFCURVE",
"420 134 OFFCURVE",
"420 250 CURVE SMOOTH",
"420 464 LINE SMOOTH",
"420 580 OFFCURVE",
"432 643 OFFCURVE",
"517 643 CURVE SMOOTH",
"606 643 OFFCURVE",
"610 571 OFFCURVE",
"610 463 CURVE SMOOTH",
"610 251 LINE SMOOTH",
"610 143 OFFCURVE",
"606 71 OFFCURVE",
"517 71 CURVE SMOOTH"
);
}
);
width = 780;
}
);
leftMetricsKey = u16B2B;
unicode = 16B67;
},
{
glyphname = u16B68;
lastChange = "2017-12-01 20:58:02 +0000";
layers = (
{
layerId = UUID0;
paths = (
{
closed = 1;
nodes = (
"560 0 LINE",
"560 80 LINE",
"356 80 LINE",
"356 528 LINE",
"485 412 LINE",
"528 478 LINE",
"359 634 LINE",
"560 634 LINE",
"560 714 LINE",
"50 714 LINE",
"50 634 LINE",
"266 634 LINE",
"266 80 LINE",
"50 80 LINE",
"50 0 LINE"
);
}
);
width = 610;
}
);
unicode = 16B68;
},
{
glyphname = u16B69;
lastChange = "2017-12-01 20:58:02 +0000";
layers = (
{
layerId = UUID0;
paths = (
{
closed = 1;
nodes = (
"560 0 LINE",
"560 80 LINE",
"356 80 LINE",
"356 595 LINE",
"540 419 LINE",
"540 521 LINE",
"327 725 LINE",
"295 725 LINE",
"82 521 LINE",
"82 419 LINE",
"266 595 LINE",
"266 80 LINE",
"50 80 LINE",
"50 0 LINE"
);
}
);
width = 610;
}
);
unicode = 16B69;
},
{
glyphname = u16B6A;
lastChange = "2017-12-01 20:58:02 +0000";
layers = (
{
layerId = UUID0;
paths = (
{
closed = 1;
nodes = (
"327 -11 LINE",
"540 193 LINE",
"540 295 LINE",
"356 119 LINE",
"356 634 LINE",
"560 634 LINE",
"560 714 LINE",
"50 714 LINE",
"50 634 LINE",
"266 634 LINE",
"266 119 LINE",
"82 295 LINE",
"82 193 LINE",
"295 -11 LINE"
);
},
{
closed = 1;
nodes = (
"350 780 OFFCURVE",
"383 812 OFFCURVE",
"383 852 CURVE SMOOTH",
"383 892 OFFCURVE",
"350 925 OFFCURVE",
"310 925 CURVE SMOOTH",
"270 925 OFFCURVE",
"238 892 OFFCURVE",
"238 852 CURVE SMOOTH",
"238 812 OFFCURVE",
"270 780 OFFCURVE",
"310 780 CURVE SMOOTH"
);
}
);
width = 610;
}
);
unicode = 16B6A;
},
{
glyphname = u16B6B;
lastChange = "2017-12-01 20:58:02 +0000";
layers = (
{
layerId = UUID0;
paths = (
{
closed = 1;
nodes = (
"356 -1 LINE",
"356 634 LINE",
"560 634 LINE",
"560 714 LINE",
"50 714 LINE",
"50 634 LINE",
"266 634 LINE",
"266 -1 LINE"
);
},
{
closed = 1;
nodes = (
"350 780 OFFCURVE",
"383 812 OFFCURVE",
"383 852 CURVE SMOOTH",
"383 892 OFFCURVE",
"350 925 OFFCURVE",
"310 925 CURVE SMOOTH",
"270 925 OFFCURVE",
"238 892 OFFCURVE",
"238 852 CURVE SMOOTH",
"238 812 OFFCURVE",
"270 780 OFFCURVE",
"310 780 CURVE SMOOTH"
);
}
);
width = 610;
}
);
unicode = 16B6B;
},
{
glyphname = u16B6C;
lastChange = "2017-12-01 20:58:02 +0000";
layers = (
{
layerId = UUID0;
paths = (
{
closed = 1;
nodes = (
"560 0 LINE",
"560 80 LINE",
"356 80 LINE",
"356 715 LINE",
"266 715 LINE",
"266 80 LINE",
"50 80 LINE",
"50 0 LINE"
);
},
{
closed = 1;
nodes = (
"350 -211 OFFCURVE",
"383 -178 OFFCURVE",
"383 -138 CURVE SMOOTH",
"383 -98 OFFCURVE",
"350 -66 OFFCURVE",
"310 -66 CURVE SMOOTH",
"270 -66 OFFCURVE",
"238 -98 OFFCURVE",
"238 -138 CURVE SMOOTH",
"238 -178 OFFCURVE",
"270 -211 OFFCURVE",
"310 -211 CURVE SMOOTH"
);
}
);
width = 610;
}
);
rightKerningGroup = u16B6F;
unicode = 16B6C;
},
{
glyphname = u16B6D;
lastChange = "2017-12-01 20:58:02 +0000";
layers = (
{
layerId = UUID0;
paths = (
{
closed = 1;
nodes = (
"180 0 LINE",
"510 346 LINE",
"510 0 LINE",
"600 0 LINE",
"600 714 LINE",
"510 714 LINE",
"386 579 LINE",
"440 527 LINE",
"510 605 LINE",
"510 456 LINE",
"180 109 LINE",
"180 714 LINE",
"90 714 LINE",
"90 0 LINE"
);
}
);
width = 690;
}
);
leftMetricsKey = u16B2B;
rightMetricsKey = u16B2B;
unicode = 16B6D;
},
{
glyphname = u16B6E;
lastChange = "2017-12-01 20:58:02 +0000";
layers = (
{
layerId = UUID0;
paths = (
{
closed = 1;
nodes = (
"180 0 LINE",
"510 346 LINE",
"510 0 LINE",
"770 0 LINE",
"770 80 LINE",
"600 80 LINE",
"600 714 LINE",
"510 714 LINE",
"386 579 LINE",
"440 527 LINE",
"510 605 LINE",
"510 456 LINE",
"180 109 LINE",
"180 714 LINE",
"90 714 LINE",
"90 0 LINE"
);
}
);
width = 820;
}
);
leftMetricsKey = u16B2B;
unicode = 16B6E;
},
{
glyphname = u16B6F;
lastChange = "2017-12-01 20:58:02 +0000";
layers = (
{
layerId = UUID0;
paths = (
{
closed = 1;
nodes = (
"600 0 LINE",
"600 80 LINE",
"180 80 LINE",
"180 714 LINE",
"90 714 LINE",
"90 0 LINE"
);
}
);
width = 650;
}
);
leftMetricsKey = u16B2B;
rightKerningGroup = u16B6F;
unicode = 16B6F;
},
{
glyphname = u16B70;
lastChange = "2017-12-01 20:58:02 +0000";
layers = (
{
layerId = UUID0;
paths = (
{
closed = 1;
nodes = (
"180 0 LINE",
"180 260 LINE",
"630 260 LINE",
"630 340 LINE",
"180 340 LINE",
"180 600 LINE",
"90 600 LINE",
"90 0 LINE"
);
}
);
width = 680;
}
);
leftMetricsKey = u16B2B;
unicode = 16B70;
},
{
glyphname = u16B71;
lastChange = "2017-12-01 20:58:02 +0000";
layers = (
{
layerId = UUID0;
paths = (
{
closed = 1;
nodes = (
"590 0 LINE",
"590 600 LINE",
"500 600 LINE",
"500 340 LINE",
"50 340 LINE",
"50 260 LINE",
"500 260 LINE",
"500 0 LINE"
);
}
);
width = 680;
}
);
rightMetricsKey = u16B2B;
unicode = 16B71;
},
{
glyphname = u16B72;
lastChange = "2017-12-01 20:58:02 +0000";
layers = (
{
layerId = UUID0;
paths = (
{
closed = 1;
nodes = (
"180 0 LINE",
"180 600 LINE",
"90 600 LINE",
"90 0 LINE"
);
},
{
closed = 1;
nodes = (
"730 90 LINE",
"730 170 LINE",
"260 170 LINE",
"260 90 LINE"
);
},
{
closed = 1;
nodes = (
"730 430 LINE",
"730 510 LINE",
"260 510 LINE",
"260 430 LINE"
);
}
);
width = 780;
}
);
leftMetricsKey = u16B2B;
unicode = 16B72;
},
{
glyphname = u16B73;
lastChange = "2017-12-01 20:58:02 +0000";
layers = (
{
layerId = UUID0;
paths = (
{
closed = 1;
nodes = (
"414 0 LINE",
"414 330 LINE",
"569 330 LINE",
"569 0 LINE",
"659 0 LINE",
"659 410 LINE",
"414 410 LINE",
"414 634 LINE",
"569 634 LINE",
"569 504 LINE",
"659 504 LINE",
"659 714 LINE",
"324 714 LINE",
"324 410 LINE",
"170 410 LINE",
"170 714 LINE",
"80 714 LINE",
"80 330 LINE",
"324 330 LINE",
"324 0 LINE"
);
}
);
width = 749;
}
);
rightMetricsKey = u16B2B;
unicode = 16B73;
},
{
glyphname = u16B74;
lastChange = "2017-12-01 20:58:02 +0000";
layers = (
{
layerId = UUID0;
paths = (
{
closed = 1;
nodes = (
"669 -11 OFFCURVE",
"697 82 OFFCURVE",
"700 215 CURVE",
"610 215 LINE",
"608 126 OFFCURVE",
"597 71 OFFCURVE",
"517 71 CURVE SMOOTH",
"432 71 OFFCURVE",
"420 134 OFFCURVE",
"420 250 CURVE SMOOTH",
"420 464 LINE SMOOTH",
"420 580 OFFCURVE",
"432 643 OFFCURVE",
"517 643 CURVE SMOOTH",
"599 643 OFFCURVE",
"609 593 OFFCURVE",
"610 500 CURVE",
"700 500 LINE",
"697 634 OFFCURVE",
"670 725 OFFCURVE",
"512 725 CURVE SMOOTH",
"354 725 OFFCURVE",
"330 620 OFFCURVE",
"330 461 CURVE SMOOTH",
"330 253 LINE SMOOTH",
"330 94 OFFCURVE",
"354 -11 OFFCURVE",
"512 -11 CURVE SMOOTH"
);
},
{
closed = 1;
nodes = (
"180 0 LINE",
"180 714 LINE",
"90 714 LINE",
"90 0 LINE"
);
},
{
closed = 1;
nodes = (
"546 360 LINE",
"491 423 LINE",
"129 61 LINE",
"180 0 LINE"
);
}
);
width = 780;
}
);
leftMetricsKey = u16B2B;
unicode = 16B74;
},
{
glyphname = u16B75;
lastChange = "2017-12-01 20:58:02 +0000";
layers = (
{
layerId = UUID0;
paths = (
{
closed = 1;
nodes = (
"426 -11 OFFCURVE",
"450 94 OFFCURVE",
"450 253 CURVE SMOOTH",
"450 330 LINE",
"600 330 LINE",
"600 0 LINE",
"690 0 LINE",
"690 410 LINE",
"450 410 LINE",
"450 461 LINE SMOOTH",
"450 620 OFFCURVE",
"426 725 OFFCURVE",
"268 725 CURVE SMOOTH",
"110 725 OFFCURVE",
"83 634 OFFCURVE",
"80 500 CURVE",
"170 500 LINE",
"171 593 OFFCURVE",
"181 643 OFFCURVE",
"263 643 CURVE SMOOTH",
"348 643 OFFCURVE",
"360 580 OFFCURVE",
"360 464 CURVE SMOOTH",
"360 410 LINE",
"161 410 LINE",
"161 330 LINE",
"360 330 LINE",
"360 250 LINE SMOOTH",
"360 134 OFFCURVE",
"348 71 OFFCURVE",
"263 71 CURVE SMOOTH",
"183 71 OFFCURVE",
"172 125 OFFCURVE",
"170 214 CURVE",
"80 214 LINE",
"83 81 OFFCURVE",
"111 -11 OFFCURVE",
"268 -11 CURVE SMOOTH"
);
}
);
width = 770;
}
);
unicode = 16B75;
},
{
glyphname = u16B76;
lastChange = "2017-12-01 20:58:02 +0000";
layers = (
{
layerId = UUID0;
paths = (
{
closed = 1;
nodes = (
"590 -11 OFFCURVE",
"649 42 OFFCURVE",
"649 111 CURVE SMOOTH",
"649 180 OFFCURVE",
"590 234 OFFCURVE",
"522 234 CURVE SMOOTH",
"503 234 OFFCURVE",
"486 230 OFFCURVE",
"470 223 CURVE",
"470 464 LINE SMOOTH",
"470 580 OFFCURVE",
"482 643 OFFCURVE",
"567 643 CURVE SMOOTH",
"649 643 OFFCURVE",
"659 593 OFFCURVE",
"660 500 CURVE",
"750 500 LINE",
"747 634 OFFCURVE",
"720 725 OFFCURVE",
"562 725 CURVE SMOOTH",
"404 725 OFFCURVE",
"380 620 OFFCURVE",
"380 461 CURVE SMOOTH",
"380 422 LINE",
"180 422 LINE",
"180 714 LINE",
"90 714 LINE",
"90 0 LINE",
"180 0 LINE",
"180 342 LINE",
"380 342 LINE",
"380 150 LINE SMOOTH",
"380 94 OFFCURVE",
"405 -11 OFFCURVE",
"522 -11 CURVE SMOOTH"
);
},
{
closed = 1;
nodes = (
"492 59 OFFCURVE",
"470 80 OFFCURVE",
"470 111 CURVE SMOOTH",
"470 142 OFFCURVE",
"492 164 OFFCURVE",
"522 164 CURVE SMOOTH",
"552 164 OFFCURVE",
"575 142 OFFCURVE",
"575 111 CURVE SMOOTH",
"575 79 OFFCURVE",
"552 59 OFFCURVE",
"522 59 CURVE SMOOTH"
);
}
);
width = 800;
}
);
leftMetricsKey = u16B2B;
unicode = 16B76;
},
{
glyphname = u16B77;
lastChange = "2017-12-01 20:58:02 +0000";
layers = (
{
layerId = UUID0;
paths = (
{
closed = 1;
nodes = (
"399 0 LINE",
"399 383 LINE",
"473 383 LINE",
"475 234 OFFCURVE",
"506 138 OFFCURVE",
"658 138 CURVE",
"658 220 LINE",
"573 220 OFFCURVE",
"563 283 OFFCURVE",
"563 399 CURVE SMOOTH",
"563 453 LINE SMOOTH",
"563 569 OFFCURVE",
"573 632 OFFCURVE",
"658 632 CURVE",
"658 714 LINE",
"504 714 OFFCURVE",
"474 614 OFFCURVE",
"473 463 CURVE",
"235 463 LINE",
"233 614 OFFCURVE",
"203 714 OFFCURVE",
"50 714 CURVE",
"50 632 LINE",
"135 632 OFFCURVE",
"145 569 OFFCURVE",
"145 453 CURVE SMOOTH",
"145 399 LINE SMOOTH",
"145 283 OFFCURVE",
"135 220 OFFCURVE",
"50 220 CURVE",
"50 138 LINE",
"201 138 OFFCURVE",
"232 234 OFFCURVE",
"235 383 CURVE",
"309 383 LINE",
"309 0 LINE"
);
}
);
width = 708;
}
);
unicode = 16B77;
},
{
glyphname = u16B7E;
lastChange = "2017-12-01 20:58:02 +0000";
layers = (
{
layerId = UUID0;
paths = (
{
closed = 1;
nodes = (
"180 0 LINE",
"180 230 LINE",
"374 230 LINE",
"374 0 LINE",
"464 0 LINE",
"464 230 LINE",
"659 230 LINE",
"659 0 LINE",
"749 0 LINE",
"749 310 LINE",
"464 310 LINE",
"464 634 LINE",
"599 634 LINE",
"599 714 LINE",
"90 714 LINE",
"90 0 LINE"
);
},
{
closed = 1;
nodes = (
"180 434 LINE",
"374 434 LINE",
"374 310 LINE",
"180 310 LINE"
);
},
{
closed = 1;
nodes = (
"180 634 LINE",
"374 634 LINE",
"374 504 LINE",
"180 504 LINE"
);
}
);
width = 799;
}
);
leftMetricsKey = u16B2B;
unicode = 16B7E;
},
{
glyphname = u16B7F;
lastChange = "2017-12-01 20:58:02 +0000";
layers = (
{
layerId = UUID0;
paths = (
{
closed = 1;
nodes = (
"580 0 LINE",
"580 205 LINE",
"783 0 LINE",
"838 59 LINE",
"580 318 LINE",
"580 395 LINE",
"838 655 LINE",
"783 714 LINE",
"580 509 LINE",
"580 714 LINE",
"490 714 LINE",
"490 0 LINE"
);
},
{
closed = 1;
nodes = (
"268 205 LINE",
"268 0 LINE",
"358 0 LINE",
"358 714 LINE",
"268 714 LINE",
"268 509 LINE",
"65 714 LINE",
"10 655 LINE",
"268 395 LINE",
"268 318 LINE",
"10 59 LINE",
"65 0 LINE"
);
}
);
width = 848;
}
);
unicode = 16B7F;
},
{
glyphname = u16B80;
lastChange = "2017-12-01 20:58:02 +0000";
layers = (
{
layerId = UUID0;
paths = (
{
closed = 1;
nodes = (
"760 0 LINE",
"760 714 LINE",
"300 714 LINE",
"300 634 LINE",
"670 634 LINE",
"670 0 LINE"
);
},
{
closed = 1;
nodes = (
"550 0 LINE",
"550 80 LINE",
"180 80 LINE",
"180 714 LINE",
"90 714 LINE",
"90 0 LINE"
);
},
{
closed = 1;
nodes = (
"570 194 LINE",
"570 262 LINE",
"434 262 LINE SMOOTH",
"383 262 OFFCURVE",
"353 277 OFFCURVE",
"353 303 CURVE SMOOTH",
"353 323 OFFCURVE",
"363 347 OFFCURVE",
"414 347 CURVE SMOOTH",
"570 347 LINE",
"570 415 LINE",
"414 415 LINE SMOOTH",
"364 415 OFFCURVE",
"353 439 OFFCURVE",
"353 459 CURVE SMOOTH",
"353 485 OFFCURVE",
"383 500 OFFCURVE",
"434 500 CURVE SMOOTH",
"570 500 LINE",
"570 568 LINE",
"426 568 LINE SMOOTH",
"367 568 OFFCURVE",
"279 554 OFFCURVE",
"279 459 CURVE SMOOTH",
"279 415 OFFCURVE",
"300 397 OFFCURVE",
"320 380 CURVE",
"300 363 OFFCURVE",
"279 344 OFFCURVE",
"279 303 CURVE SMOOTH",
"279 208 OFFCURVE",
"367 194 OFFCURVE",
"426 194 CURVE SMOOTH"
);
}
);
width = 850;
}
);
leftMetricsKey = u16B2B;
rightMetricsKey = u16B2B;
unicode = 16B80;
},
{
glyphname = u16B81;
lastChange = "2017-12-01 20:58:02 +0000";
layers = (
{
layerId = UUID0;
paths = (
{
closed = 1;
nodes = (
"334 190 LINE",
"578 -23 LINE",
"578 79 LINE",
"396 238 LINE",
"465 298 LINE",
"578 199 LINE",
"578 301 LINE",
"396 460 LINE",
"463 519 LINE",
"578 419 LINE",
"578 521 LINE",
"522 570 LINE",
"589 629 LINE",
"538 684 LINE",
"465 620 LINE",
"345 725 LINE",
"323 725 LINE",
"203 620 LINE",
"131 684 LINE",
"80 629 LINE",
"146 570 LINE",
"90 521 LINE",
"90 419 LINE",
"205 519 LINE",
"272 460 LINE",
"90 301 LINE",
"90 199 LINE",
"203 298 LINE",
"272 238 LINE",
"90 79 LINE",
"90 -23 LINE"
);
},
{
closed = 1;
nodes = (
"260 347 LINE",
"334 412 LINE",
"408 347 LINE",
"335 283 LINE"
);
},
{
closed = 1;
nodes = (
"261 568 LINE",
"334 632 LINE",
"407 568 LINE",
"335 505 LINE"
);
}
);
width = 669;
}
);
unicode = 16B81;
},
{
glyphname = u16B82;
lastChange = "2017-12-01 20:58:02 +0000";
layers = (
{
layerId = UUID0;
paths = (
{
closed = 1;
nodes = (
"700 0 LINE",
"700 714 LINE",
"520 714 LINE",
"520 843 LINE",
"440 843 LINE",
"440 634 LINE",
"610 634 LINE",
"610 0 LINE"
);
},
{
closed = 1;
nodes = (
"180 0 LINE",
"180 634 LINE",
"350 634 LINE",
"350 843 LINE",
"270 843 LINE",
"270 714 LINE",
"90 714 LINE",
"90 0 LINE"
);
},
{
closed = 1;
nodes = (
"487 169 OFFCURVE",
"538 229 OFFCURVE",
"538 368 CURVE",
"458 368 LINE",
"458 270 OFFCURVE",
"437 245 OFFCURVE",
"389 245 CURVE SMOOTH",
"339 245 OFFCURVE",
"318 270 OFFCURVE",
"318 368 CURVE",
"238 368 LINE",
"238 229 OFFCURVE",
"289 169 OFFCURVE",
"388 169 CURVE SMOOTH"
);
}
);
width = 790;
}
);
leftMetricsKey = u16B2B;
rightMetricsKey = u16B2B;
unicode = 16B82;
},
{
glyphname = u16B83;
lastChange = "2017-12-01 20:58:02 +0000";
layers = (
{
layerId = UUID0;
paths = (
{
closed = 1;
nodes = (
"674 0 LINE",
"674 80 LINE",
"544 80 LINE",
"544 554 LINE",
"454 554 LINE",
"454 0 LINE"
);
},
{
closed = 1;
nodes = (
"303 0 LINE",
"303 554 LINE",
"213 554 LINE",
"213 80 LINE",
"83 80 LINE",
"83 0 LINE"
);
},
{
closed = 1;
nodes = (
"130 540 LINE",
"130 560 LINE SMOOTH",
"130 614 OFFCURVE",
"153 634 OFFCURVE",
"210 634 CURVE SMOOTH",
"547 634 LINE SMOOTH",
"604 634 OFFCURVE",
"627 614 OFFCURVE",
"627 560 CURVE SMOOTH",
"627 540 LINE",
"707 540 LINE",
"707 575 LINE SMOOTH",
"707 665 OFFCURVE",
"654 714 OFFCURVE",
"550 714 CURVE SMOOTH",
"207 714 LINE SMOOTH",
"103 714 OFFCURVE",
"50 665 OFFCURVE",
"50 575 CURVE SMOOTH",
"50 540 LINE"
);
}
);
width = 757;
}
);
unicode = 16B83;
},
{
glyphname = u16B84;
lastChange = "2017-12-01 20:58:02 +0000";
layers = (
{
layerId = UUID0;
paths = (
{
closed = 1;
nodes = (
"354 0 LINE",
"354 330 LINE",
"434 330 LINE",
"434 0 LINE",
"514 0 LINE",
"514 330 LINE",
"618 330 LINE",
"618 0 LINE",
"708 0 LINE",
"708 410 LINE",
"514 410 LINE",
"514 714 LINE",
"434 714 LINE",
"434 410 LINE",
"354 410 LINE",
"354 714 LINE",
"274 714 LINE",
"274 410 LINE",
"170 410 LINE",
"170 714 LINE",
"80 714 LINE",
"80 330 LINE",
"274 330 LINE",
"274 0 LINE"
);
}
);
width = 788;
}
);
unicode = 16B84;
},
{
glyphname = u16B85;
lastChange = "2017-12-01 20:58:02 +0000";
layers = (
{
layerId = UUID0;
paths = (
{
closed = 1;
nodes = (
"130 540 LINE",
"130 560 LINE SMOOTH",
"130 614 OFFCURVE",
"153 634 OFFCURVE",
"210 634 CURVE SMOOTH",
"627 634 LINE SMOOTH",
"684 634 OFFCURVE",
"707 614 OFFCURVE",
"707 560 CURVE SMOOTH",
"707 540 LINE",
"787 540 LINE",
"787 575 LINE SMOOTH",
"787 665 OFFCURVE",
"734 714 OFFCURVE",
"630 714 CURVE SMOOTH",
"207 714 LINE SMOOTH",
"103 714 OFFCURVE",
"50 665 OFFCURVE",
"50 575 CURVE SMOOTH",
"50 540 LINE"
);
},
{
closed = 1;
nodes = (
"220 0 LINE",
"220 330 LINE",
"307 330 LINE",
"307 30 LINE",
"387 30 LINE",
"387 450 LINE",
"307 450 LINE",
"307 410 LINE",
"130 410 LINE",
"130 0 LINE"
);
},
{
closed = 1;
nodes = (
"707 0 LINE",
"707 410 LINE",
"530 410 LINE",
"530 450 LINE",
"450 450 LINE",
"450 30 LINE",
"530 30 LINE",
"530 330 LINE",
"617 330 LINE",
"617 0 LINE"
);
}
);
width = 837;
}
);
unicode = 16B85;
},
{
glyphname = u16B86;
lastChange = "2017-12-01 20:58:02 +0000";
layers = (
{
layerId = UUID0;
paths = (
{
closed = 1;
nodes = (
"378 0 LINE",
"378 254 LINE",
"619 254 LINE",
"619 334 LINE",
"378 334 LINE",
"378 384 LINE",
"499 490 LINE",
"619 388 LINE",
"619 490 LINE",
"558 542 LINE",
"627 602 LINE",
"576 657 LINE",
"501 591 LINE",
"345 725 LINE",
"323 725 LINE",
"166 591 LINE",
"91 657 LINE",
"40 602 LINE",
"109 542 LINE",
"48 490 LINE",
"48 388 LINE",
"168 490 LINE",
"288 385 LINE",
"288 334 LINE",
"48 334 LINE",
"48 254 LINE",
"288 254 LINE",
"288 0 LINE"
);
},
{
closed = 1;
nodes = (
"225 539 LINE",
"334 632 LINE",
"442 539 LINE",
"334 444 LINE"
);
}
);
width = 667;
}
);
unicode = 16B86;
},
{
glyphname = u16B87;
lastChange = "2017-12-01 20:58:02 +0000";
layers = (
{
layerId = UUID0;
paths = (
{
closed = 1;
nodes = (
"328 0 LINE",
"328 296 LINE",
"481 382 LINE",
"481 0 LINE",
"571 0 LINE",
"571 433 LINE",
"635 469 LINE SMOOTH",
"716 514 OFFCURVE",
"736 560 OFFCURVE",
"736 612 CURVE SMOOTH",
"736 687 OFFCURVE",
"686 725 OFFCURVE",
"624 725 CURVE SMOOTH",
"501 725 OFFCURVE",
"481 635 OFFCURVE",
"481 560 CURVE SMOOTH",
"481 467 LINE",
"328 379 LINE",
"328 714 LINE",
"219 714 LINE",
"80 539 LINE",
"141 486 LINE",
"238 618 LINE",
"238 327 LINE",
"122 261 LINE",
"153 198 LINE",
"238 246 LINE",
"238 0 LINE"
);
},
{
closed = 1;
nodes = (
"571 590 LINE SMOOTH",
"571 629 OFFCURVE",
"590 657 OFFCURVE",
"624 657 CURVE SMOOTH",
"651 657 OFFCURVE",
"664 633 OFFCURVE",
"664 612 CURVE SMOOTH",
"664 584 OFFCURVE",
"656 568 OFFCURVE",
"604 538 CURVE SMOOTH",
"571 519 LINE"
);
}
);
width = 766;
}
);
rightKerningGroup = u16B1F;
unicode = 16B87;
},
{
glyphname = u16B88;
lastChange = "2017-12-01 20:58:02 +0000";
layers = (
{
layerId = UUID0;
paths = (
{
closed = 1;
nodes = (
"180 0 LINE",
"180 634 LINE",
"344 634 LINE",
"344 0 LINE",
"424 0 LINE",
"424 634 LINE",
"588 634 LINE",
"588 0 LINE",
"678 0 LINE",
"678 714 LINE",
"90 714 LINE",
"90 0 LINE"
);
},
{
closed = 1;
nodes = (
"557 800 LINE",
"557 874 LINE",
"212 874 LINE",
"212 800 LINE"
);
}
);
width = 768;
}
);
leftMetricsKey = u16B2B;
rightMetricsKey = u16B2B;
unicode = 16B88;
},
{
glyphname = u16B89;
lastChange = "2017-12-01 20:58:02 +0000";
layers = (
{
layerId = UUID0;
paths = (
{
closed = 1;
nodes = (
"718 0 LINE",
"718 80 LINE",
"628 80 LINE",
"628 340 LINE",
"718 340 LINE",
"718 420 LINE",
"628 420 LINE",
"628 634 LINE",
"718 634 LINE",
"718 714 LINE",
"70 714 LINE",
"70 634 LINE",
"160 634 LINE",
"160 420 LINE",
"70 420 LINE",
"70 340 LINE",
"160 340 LINE",
"160 80 LINE",
"70 80 LINE",
"70 0 LINE"
);
},
{
closed = 1;
nodes = (
"250 634 LINE",
"354 634 LINE",
"354 80 LINE",
"250 80 LINE"
);
},
{
closed = 1;
nodes = (
"434 634 LINE",
"538 634 LINE",
"538 80 LINE",
"434 80 LINE"
);
}
);
width = 788;
}
);
unicode = 16B89;
},
{
glyphname = u16B8A;
lastChange = "2017-12-01 20:58:02 +0000";
layers = (
{
layerId = UUID0;
paths = (
{
closed = 1;
nodes = (
"700 0 LINE",
"700 714 LINE",
"440 714 LINE",
"440 634 LINE",
"610 634 LINE",
"610 0 LINE"
);
},
{
closed = 1;
nodes = (
"180 0 LINE",
"180 634 LINE",
"350 634 LINE",
"350 714 LINE",
"90 714 LINE",
"90 0 LINE"
);
},
{
closed = 1;
nodes = (
"487 169 OFFCURVE",
"538 229 OFFCURVE",
"538 368 CURVE",
"458 368 LINE",
"458 270 OFFCURVE",
"437 245 OFFCURVE",
"389 245 CURVE SMOOTH",
"339 245 OFFCURVE",
"318 270 OFFCURVE",
"318 368 CURVE",
"238 368 LINE",
"238 229 OFFCURVE",
"289 169 OFFCURVE",
"388 169 CURVE SMOOTH"
);
}
);
width = 790;
}
);
leftMetricsKey = u16B2B;
rightMetricsKey = u16B2B;
unicode = 16B8A;
},
{
glyphname = u16B8C;
lastChange = "2017-12-01 20:58:02 +0000";
layers = (
{
layerId = UUID0;
paths = (
{
closed = 1;
nodes = (
"190 495 LINE",
"232 466 OFFCURVE",
"282 445 OFFCURVE",
"347 445 CURVE SMOOTH",
"415 445 OFFCURVE",
"467 465 OFFCURVE",
"510 495 CURVE",
"635 388 LINE",
"635 490 LINE",
"570 546 LINE",
"596 571 OFFCURVE",
"619 598 OFFCURVE",
"643 622 CURVE",
"592 677 LINE",
"563 649 OFFCURVE",
"536 622 OFFCURVE",
"509 598 CURVE",
"361 725 LINE",
"339 725 LINE",
"190 597 LINE",
"161 624 OFFCURVE",
"133 653 OFFCURVE",
"107 677 CURVE",
"56 622 LINE",
"78 600 OFFCURVE",
"102 573 OFFCURVE",
"130 546 CURVE",
"64 490 LINE",
"64 388 LINE"
);
},
{
closed = 1;
nodes = (
"304 -11 LINE",
"304 391 LINE",
"224 391 LINE",
"224 137 LINE",
"40 306 LINE",
"40 204 LINE",
"283 -11 LINE"
);
},
{
closed = 1;
nodes = (
"415 -11 LINE",
"658 204 LINE",
"658 306 LINE",
"474 137 LINE",
"474 391 LINE",
"394 391 LINE",
"394 -11 LINE"
);
},
{
closed = 1;
nodes = (
"314 520 OFFCURVE",
"282 532 OFFCURVE",
"253 549 CURVE",
"350 632 LINE",
"447 549 LINE",
"417 531 OFFCURVE",
"386 520 OFFCURVE",
"350 520 CURVE SMOOTH"
);
}
);
width = 698;
}
);
unicode = 16B8C;
},
{
glyphname = u16B8D;
lastChange = "2017-12-01 20:58:02 +0000";
layers = (
{
layerId = UUID0;
paths = (
{
closed = 1;
nodes = (
"260 0 LINE",
"260 342 LINE",
"433 342 LINE",
"433 0 LINE",
"523 0 LINE",
"523 634 LINE",
"673 634 LINE",
"673 714 LINE",
"433 714 LINE",
"433 422 LINE",
"260 422 LINE",
"260 714 LINE",
"20 714 LINE",
"20 634 LINE",
"170 634 LINE",
"170 0 LINE"
);
},
{
closed = 1;
nodes = (
"519 800 LINE",
"519 874 LINE",
"174 874 LINE",
"174 800 LINE"
);
}
);
width = 693;
}
);
rightKerningGroup = u16B1F;
unicode = 16B8D;
},
{
glyphname = u16B8E;
lastChange = "2017-12-01 20:58:02 +0000";
layers = (
{
layerId = UUID0;
paths = (
{
closed = 1;
nodes = (
"260 0 LINE",
"260 342 LINE",
"433 342 LINE",
"433 0 LINE",
"523 0 LINE",
"523 634 LINE",
"673 634 LINE",
"673 714 LINE",
"433 714 LINE",
"433 422 LINE",
"260 422 LINE",
"260 714 LINE",
"20 714 LINE",
"20 634 LINE",
"170 634 LINE",
"170 0 LINE"
);
},
{
closed = 1;
nodes = (
"519 800 LINE",
"519 874 LINE",
"366 874 LINE",
"444 1030 LINE",
"244 1030 LINE",
"322 874 LINE",
"174 874 LINE",
"174 800 LINE"
);
}
);
width = 693;
}
);
rightKerningGroup = u16B1F;
unicode = 16B8E;
},
{
glyphname = u16B8F;
lastChange = "2017-12-01 20:58:02 +0000";
layers = (
{
layerId = UUID0;
paths = (
{
closed = 1;
nodes = (
"603 0 LINE",
"444 245 LINE",
"630 245 LINE",
"630 315 LINE",
"398 315 LINE",
"369 360 LINE",
"630 360 LINE",
"630 430 LINE",
"414 430 LINE",
"630 714 LINE",
"535 714 LINE",
"321 434 LINE",
"140 714 LINE",
"40 714 LINE",
"223 430 LINE",
"40 430 LINE",
"40 360 LINE",
"268 360 LINE",
"297 315 LINE",
"40 315 LINE",
"40 245 LINE",
"342 245 LINE",
"501 0 LINE"
);
}
